<svg width="128" height="30" viewBox="0 0 128 30" fill="none" xmlns="http://www.w3.org/2000/svg">
<rect width="9.23604" height="28.8739" rx="4.61802" transform="matrix(0.8963 0.443448 -0.467318 0.884089 13.4932 0)" fill="white"/>
<rect width="9.81026" height="28.8684" rx="4.90513" transform="matrix(0.899331 0.437268 -0.460978 0.887411 30.24 0.0921936)" fill="#01F6FC"/>
<ellipse cx="43.75" cy="21.768" rx="6.25" ry="6.04667" fill="white"/>
<path d="M65.1855 23.7109C66.3379 23.7109 67.3975 23.6621 68.3643 23.5645C69.3311 23.4668 70.1758 23.3545 70.8984 23.2275C71.7383 23.0908 72.5049 22.9297 73.1982 22.7441L72.7734 25.1172C72.6562 25.1074 72.4805 25.0977 72.2461 25.0879C72.0117 25.0781 71.748 25.0684 71.4551 25.0586C71.1719 25.0488 70.8691 25.0391 70.5469 25.0293C70.2344 25.0293 69.9365 25.0244 69.6533 25.0146C69.3701 25.0146 69.1162 25.0098 68.8916 25C68.6768 25 68.5205 25 68.4229 25H62.0947V24.9414C62.1533 24.7363 62.207 24.4824 62.2559 24.1797C62.3145 23.877 62.3633 23.501 62.4023 23.0518C62.4414 22.6025 62.4707 22.0703 62.4902 21.4551C62.5098 20.8301 62.5195 20.1025 62.5195 19.2725V9.73633C62.5195 8.90625 62.5098 8.18359 62.4902 7.56836C62.4707 6.94336 62.4414 6.40625 62.4023 5.95703C62.3633 5.49805 62.3145 5.11719 62.2559 4.81445C62.207 4.51172 62.1533 4.25781 62.0947 4.05273V3.99414H65.6104V4.05273C65.5518 4.25781 65.4932 4.51172 65.4346 4.81445C65.3857 5.11719 65.3418 5.49805 65.3027 5.95703C65.2734 6.40625 65.2441 6.94336 65.2148 7.56836C65.1953 8.18359 65.1855 8.90625 65.1855 9.73633V23.7109ZM79.0254 24.9414C79.084 24.7363 79.1377 24.4824 79.1865 24.1797C79.2354 23.877 79.2793 23.501 79.3184 23.0518C79.3574 22.6025 79.3867 22.0703 79.4062 21.4551C79.4258 20.8301 79.4355 20.1025 79.4355 19.2725V9.73633C79.4355 8.90625 79.4258 8.18359 79.4062 7.56836C79.3867 6.94336 79.3574 6.40625 79.3184 5.95703C79.2793 5.49805 79.2354 5.11719 79.1865 4.81445C79.1377 4.51172 79.084 4.25781 79.0254 4.05273V3.99414H82.5264V4.05273C82.4678 4.25781 82.4092 4.51172 82.3506 4.81445C82.3018 5.11719 82.2578 5.49805 82.2188 5.95703C82.1895 6.40625 82.1602 6.94336 82.1309 7.56836C82.1113 8.18359 82.1016 8.90625 82.1016 9.73633V19.2725C82.1016 20.1025 82.1113 20.8301 82.1309 21.4551C82.1602 22.0703 82.1895 22.6025 82.2188 23.0518C82.2578 23.501 82.3018 23.877 82.3506 24.1797C82.4092 24.4824 82.4678 24.7363 82.5264 24.9414V25H79.0254V24.9414ZM90.6826 3.99414L105.771 20.0488V9.73633C105.771 8.90625 105.761 8.18359 105.741 7.56836C105.722 6.94336 105.692 6.40625 105.653 5.95703C105.614 5.49805 105.565 5.11719 105.507 4.81445C105.458 4.51172 105.404 4.25781 105.346 4.05273V3.99414H107.953V4.05273C107.895 4.25781 107.841 4.51172 107.792 4.81445C107.743 5.11719 107.699 5.49805 107.66 5.95703C107.621 6.40625 107.592 6.94336 107.572 7.56836C107.553 8.18359 107.543 8.90625 107.543 9.73633V25.293H107.03L91.9424 9.25293V19.2725C91.9424 20.1025 91.9521 20.8301 91.9717 21.4551C91.9912 22.0703 92.0205 22.6025 92.0596 23.0518C92.0986 23.501 92.1426 23.877 92.1914 24.1797C92.2402 24.4824 92.2939 24.7363 92.3525 24.9414V25H89.7451V24.9414C89.8037 24.7363 89.8574 24.4824 89.9062 24.1797C89.9648 23.877 90.0137 23.501 90.0527 23.0518C90.0918 22.6025 90.1211 22.0703 90.1406 21.4551C90.1602 20.8301 90.1699 20.1025 90.1699 19.2725V9.73633C90.1699 8.90625 90.1602 8.18359 90.1406 7.56836C90.1211 6.94336 90.0918 6.40625 90.0527 5.95703C90.0137 5.49805 89.9648 5.11719 89.9062 4.81445C89.8574 4.51172 89.8037 4.25781 89.7451 4.05273V3.99414H90.6826ZM115.04 3.99414C116.261 3.99414 117.472 3.98926 118.673 3.97949C119.884 3.96973 120.992 3.95996 121.998 3.9502C123.004 3.93066 123.863 3.90625 124.576 3.87695C125.289 3.84766 125.772 3.80859 126.026 3.75977L125.309 5.70801C124.986 5.62012 124.61 5.54199 124.181 5.47363C123.81 5.41504 123.355 5.36133 122.818 5.3125C122.291 5.25391 121.681 5.22461 120.987 5.22461C120.753 5.22461 120.47 5.23438 120.138 5.25391C119.815 5.26367 119.503 5.27832 119.2 5.29785C118.849 5.31738 118.492 5.33691 118.131 5.35645V13.3545C119.137 13.3447 120.045 13.3154 120.855 13.2666C121.666 13.2178 122.354 13.1689 122.921 13.1201C123.585 13.0615 124.171 12.9932 124.679 12.915L124.225 15.0391C123.551 14.9512 122.862 14.8682 122.159 14.79C121.554 14.7217 120.895 14.6631 120.182 14.6143C119.469 14.5557 118.785 14.5264 118.131 14.5264V23.7109C119.283 23.7109 120.343 23.6621 121.31 23.5645C122.276 23.4668 123.121 23.3545 123.844 23.2275C124.684 23.0908 125.45 22.9297 126.144 22.7441L125.719 25.1172C125.602 25.1074 125.426 25.0977 125.191 25.0879C124.957 25.0781 124.693 25.0684 124.4 25.0586C124.117 25.0488 123.814 25.0391 123.492 25.0293C123.18 25.0293 122.882 25.0244 122.599 25.0146C122.315 25.0146 122.062 25.0098 121.837 25C121.622 25 121.466 25 121.368 25H115.04V24.9414C115.099 24.7363 115.152 24.4824 115.201 24.1797C115.26 23.877 115.309 23.501 115.348 23.0518C115.387 22.6025 115.416 22.0703 115.436 21.4551C115.455 20.8301 115.465 20.1025 115.465 19.2725V9.73633C115.465 8.90625 115.455 8.18359 115.436 7.56836C115.416 6.94336 115.387 6.40625 115.348 5.95703C115.309 5.49805 115.26 5.11719 115.201 4.81445C115.152 4.51172 115.099 4.25781 115.04 4.05273V3.99414Z" fill="#01F6FC"/>
<path d="M65.1855 23.7109H64.1855V24.7109H65.1855V23.7109ZM70.8984 23.2275L70.7377 22.2405L70.7254 22.2426L70.8984 23.2275ZM73.1982 22.7441L74.1826 22.9204L74.4599 21.3713L72.9397 21.7781L73.1982 22.7441ZM72.7734 25.1172L72.6904 26.1137L73.5974 26.1893L73.7578 25.2934L72.7734 25.1172ZM71.4551 25.0586L71.4206 26.058L71.4218 26.058L71.4551 25.0586ZM70.5469 25.0293L70.5772 24.0298L70.562 24.0293H70.5469V25.0293ZM69.6533 25.0146L69.6878 24.0152L69.6706 24.0146H69.6533V25.0146ZM68.8916 25L68.935 24.0009L68.9133 24H68.8916V25ZM62.0947 25H61.0947V26H62.0947V25ZM62.0947 24.9414L61.1332 24.6667L61.0947 24.8014V24.9414H62.0947ZM62.2559 24.1797L61.2741 23.9897L61.2711 24.005L61.2686 24.0205L62.2559 24.1797ZM62.4902 21.4551L63.4897 21.4868L63.4897 21.4863L62.4902 21.4551ZM62.4902 7.56836L61.4907 7.59959L61.4907 7.60009L62.4902 7.56836ZM62.4023 5.95703L61.4059 6.04183L61.4061 6.04366L62.4023 5.95703ZM62.2559 4.81445L61.2686 4.97369L61.2711 4.98912L61.2741 5.00448L62.2559 4.81445ZM62.0947 4.05273H61.0947V4.19279L61.1332 4.32746L62.0947 4.05273ZM62.0947 3.99414V2.99414H61.0947V3.99414H62.0947ZM65.6104 3.99414H66.6104V2.99414H65.6104V3.99414ZM65.6104 4.05273L66.5719 4.32746L66.6104 4.19279V4.05273H65.6104ZM65.4346 4.81445L64.4528 4.62443L64.4498 4.63978L64.4473 4.65522L65.4346 4.81445ZM65.3027 5.95703L64.3063 5.87223L64.3055 5.88208L64.3049 5.89195L65.3027 5.95703ZM65.2148 7.56836L64.2159 7.52154L64.2156 7.52908L64.2153 7.53663L65.2148 7.56836ZM65.1855 24.7109C66.3655 24.7109 67.4591 24.661 68.4648 24.5594L68.2638 22.5695C67.3358 22.6632 66.3103 22.7109 65.1855 22.7109V24.7109ZM68.4648 24.5594C69.4486 24.46 70.3185 24.3447 71.0715 24.2125L70.7254 22.2426C70.033 22.3643 69.2135 22.4736 68.2638 22.5695L68.4648 24.5594ZM71.0591 24.2145C71.9261 24.0734 72.7259 23.9057 73.4568 23.7101L72.9397 21.7781C72.2839 21.9536 71.5505 22.1082 70.7378 22.2405L71.0591 24.2145ZM72.2139 22.5679L71.7891 24.941L73.7578 25.2934L74.1826 22.9204L72.2139 22.5679ZM72.8565 24.1206C72.7179 24.1091 72.5252 24.0987 72.2877 24.0888L72.2045 26.087C72.4357 26.0967 72.5946 26.1058 72.6904 26.1137L72.8565 24.1206ZM72.2877 24.0888C72.05 24.0789 71.7835 24.069 71.4884 24.0591L71.4218 26.058C71.7126 26.0677 71.9734 26.0774 72.2045 26.087L72.2877 24.0888ZM71.4895 24.0592C71.2048 24.0494 70.9006 24.0396 70.5772 24.0298L70.5166 26.0288C70.8376 26.0386 71.139 26.0483 71.4206 26.058L71.4895 24.0592ZM70.5469 24.0293C70.2447 24.0293 69.9584 24.0246 69.6878 24.0152L69.6189 26.0141C69.9146 26.0243 70.224 26.0293 70.5469 26.0293V24.0293ZM69.6533 24.0146C69.3811 24.0146 69.142 24.0099 68.935 24.0009L68.8482 25.9991C69.0904 26.0096 69.3592 26.0146 69.6533 26.0146V24.0146ZM68.8916 24C68.8912 24 68.8908 24 68.8903 24C68.8899 24 68.8895 24 68.8891 24C68.8887 24 68.8882 24 68.8878 24C68.8874 24 68.887 24 68.8866 24C68.8862 24 68.8857 24 68.8853 24C68.8849 24 68.8845 24 68.8841 24C68.8837 24 68.8832 24 68.8828 24C68.8824 24 68.882 24 68.8816 24C68.8812 24 68.8807 24 68.8803 24C68.8799 24 68.8795 24 68.8791 24C68.8787 24 68.8783 24 68.8778 24C68.8774 24 68.877 24 68.8766 24C68.8762 24 68.8758 24 68.8753 24C68.8749 24 68.8745 24 68.8741 24C68.8737 24 68.8733 24 68.8729 24C68.8725 24 68.872 24 68.8716 24C68.8712 24 68.8708 24 68.8704 24C68.87 24 68.8696 24 68.8692 24C68.8687 24 68.8683 24 68.8679 24C68.8675 24 68.8671 24 68.8667 24C68.8663 24 68.8659 24 68.8655 24C68.8651 24 68.8646 24 68.8642 24C68.8638 24 68.8634 24 68.863 24C68.8626 24 68.8622 24 68.8618 24C68.8614 24 68.861 24 68.8605 24C68.8601 24 68.8597 24 68.8593 24C68.8589 24 68.8585 24 68.8581 24C68.8577 24 68.8573 24 68.8569 24C68.8565 24 68.8561 24 68.8557 24C68.8553 24 68.8548 24 68.8544 24C68.854 24 68.8536 24 68.8532 24C68.8528 24 68.8524 24 68.852 24C68.8516 24 68.8512 24 68.8508 24C68.8504 24 68.85 24 68.8496 24C68.8492 24 68.8488 24 68.8484 24C68.848 24 68.8476 24 68.8472 24C68.8467 24 68.8463 24 68.8459 24C68.8455 24 68.8451 24 68.8447 24C68.8443 24 68.8439 24 68.8435 24C68.8431 24 68.8427 24 68.8423 24C68.8419 24 68.8415 24 68.8411 24C68.8407 24 68.8403 24 68.8399 24C68.8395 24 68.8391 24 68.8387 24C68.8383 24 68.8379 24 68.8375 24C68.8371 24 68.8367 24 68.8363 24C68.8359 24 68.8355 24 68.8351 24C68.8347 24 68.8343 24 68.8339 24C68.8335 24 68.8331 24 68.8327 24C68.8323 24 68.8319 24 68.8315 24C68.8311 24 68.8307 24 68.8303 24C68.8299 24 68.8295 24 68.8291 24C68.8287 24 68.8284 24 68.828 24C68.8276 24 68.8272 24 68.8268 24C68.8264 24 68.826 24 68.8256 24C68.8252 24 68.8248 24 68.8244 24C68.824 24 68.8236 24 68.8232 24C68.8228 24 68.8224 24 68.822 24C68.8216 24 68.8212 24 68.8208 24C68.8204 24 68.8201 24 68.8197 24C68.8193 24 68.8189 24 68.8185 24C68.8181 24 68.8177 24 68.8173 24C68.8169 24 68.8165 24 68.8161 24C68.8157 24 68.8153 24 68.815 24C68.8146 24 68.8142 24 68.8138 24C68.8134 24 68.813 24 68.8126 24C68.8122 24 68.8118 24 68.8114 24C68.811 24 68.8107 24 68.8103 24C68.8099 24 68.8095 24 68.8091 24C68.8087 24 68.8083 24 68.8079 24C68.8075 24 68.8072 24 68.8068 24C68.8064 24 68.806 24 68.8056 24C68.8052 24 68.8048 24 68.8044 24C68.8041 24 68.8037 24 68.8033 24C68.8029 24 68.8025 24 68.8021 24C68.8017 24 68.8013 24 68.801 24C68.8006 24 68.8002 24 68.7998 24C68.7994 24 68.799 24 68.7986 24C68.7983 24 68.7979 24 68.7975 24C68.7971 24 68.7967 24 68.7963 24C68.796 24 68.7956 24 68.7952 24C68.7948 24 68.7944 24 68.794 24C68.7937 24 68.7933 24 68.7929 24C68.7925 24 68.7921 24 68.7917 24C68.7914 24 68.791 24 68.7906 24C68.7902 24 68.7898 24 68.7894 24C68.7891 24 68.7887 24 68.7883 24C68.7879 24 68.7875 24 68.7872 24C68.7868 24 68.7864 24 68.786 24C68.7856 24 68.7853 24 68.7849 24C68.7845 24 68.7841 24 68.7837 24C68.7834 24 68.783 24 68.7826 24C68.7822 24 68.7818 24 68.7815 24C68.7811 24 68.7807 24 68.7803 24C68.78 24 68.7796 24 68.7792 24C68.7788 24 68.7784 24 68.7781 24C68.7777 24 68.7773 24 68.7769 24C68.7766 24 68.7762 24 68.7758 24C68.7754 24 68.7751 24 68.7747 24C68.7743 24 68.7739 24 68.7735 24C68.7732 24 68.7728 24 68.7724 24C68.772 24 68.7717 24 68.7713 24C68.7709 24 68.7705 24 68.7702 24C68.7698 24 68.7694 24 68.7691 24C68.7687 24 68.7683 24 68.7679 24C68.7676 24 68.7672 24 68.7668 24C68.7664 24 68.7661 24 68.7657 24C68.7653 24 68.765 24 68.7646 24C68.7642 24 68.7638 24 68.7635 24C68.7631 24 68.7627 24 68.7624 24C68.762 24 68.7616 24 68.7612 24C68.7609 24 68.7605 24 68.7601 24C68.7598 24 68.7594 24 68.759 24C68.7587 24 68.7583 24 68.7579 24C68.7575 24 68.7572 24 68.7568 24C68.7564 24 68.7561 24 68.7557 24C68.7553 24 68.755 24 68.7546 24C68.7542 24 68.7539 24 68.7535 24C68.7531 24 68.7528 24 68.7524 24C68.752 24 68.7517 24 68.7513 24C68.7509 24 68.7506 24 68.7502 24C68.7498 24 68.7495 24 68.7491 24C68.7487 24 68.7484 24 68.748 24C68.7476 24 68.7473 24 68.7469 24C68.7465 24 68.7462 24 68.7458 24C68.7455 24 68.7451 24 68.7447 24C68.7444 24 68.744 24 68.7436 24C68.7433 24 68.7429 24 68.7425 24C68.7422 24 68.7418 24 68.7415 24C68.7411 24 68.7407 24 68.7404 24C68.74 24 68.7396 24 68.7393 24C68.7389 24 68.7386 24 68.7382 24C68.7378 24 68.7375 24 68.7371 24C68.7368 24 68.7364 24 68.736 24C68.7357 24 68.7353 24 68.735 24C68.7346 24 68.7342 24 68.7339 24C68.7335 24 68.7332 24 68.7328 24C68.7324 24 68.7321 24 68.7317 24C68.7314 24 68.731 24 68.7306 24C68.7303 24 68.7299 24 68.7296 24C68.7292 24 68.7289 24 68.7285 24C68.7281 24 68.7278 24 68.7274 24C68.7271 24 68.7267 24 68.7264 24C68.726 24 68.7257 24 68.7253 24C68.7249 24 68.7246 24 68.7242 24C68.7239 24 68.7235 24 68.7232 24C68.7228 24 68.7225 24 68.7221 24C68.7217 24 68.7214 24 68.721 24C68.7207 24 68.7203 24 68.72 24C68.7196 24 68.7193 24 68.7189 24C68.7186 24 68.7182 24 68.7179 24C68.7175 24 68.7172 24 68.7168 24C68.7165 24 68.7161 24 68.7157 24C68.7154 24 68.715 24 68.7147 24C68.7143 24 68.714 24 68.7136 24C68.7133 24 68.7129 24 68.7126 24C68.7122 24 68.7119 24 68.7115 24C68.7112 24 68.7108 24 68.7105 24C68.7101 24 68.7098 24 68.7094 24C68.7091 24 68.7087 24 68.7084 24C68.708 24 68.7077 24 68.7074 24C68.707 24 68.7067 24 68.7063 24C68.706 24 68.7056 24 68.7053 24C68.7049 24 68.7046 24 68.7042 24C68.7039 24 68.7035 24 68.7032 24C68.7028 24 68.7025 24 68.7021 24C68.7018 24 68.7015 24 68.7011 24C68.7008 24 68.7004 24 68.7001 24C68.6997 24 68.6994 24 68.699 24C68.6987 24 68.6984 24 68.698 24C68.6977 24 68.6973 24 68.697 24C68.6966 24 68.6963 24 68.6959 24C68.6956 24 68.6953 24 68.6949 24C68.6946 24 68.6942 24 68.6939 24C68.6935 24 68.6932 24 68.6929 24C68.6925 24 68.6922 24 68.6918 24C68.6915 24 68.6912 24 68.6908 24C68.6905 24 68.6901 24 68.6898 24C68.6895 24 68.6891 24 68.6888 24C68.6884 24 68.6881 24 68.6878 24C68.6874 24 68.6871 24 68.6867 24C68.6864 24 68.6861 24 68.6857 24C68.6854 24 68.685 24 68.6847 24C68.6844 24 68.684 24 68.6837 24C68.6834 24 68.683 24 68.6827 24C68.6823 24 68.682 24 68.6817 24C68.6813 24 68.681 24 68.6807 24C68.6803 24 68.68 24 68.6796 24C68.6793 24 68.679 24 68.6786 24C68.6783 24 68.678 24 68.6776 24C68.6773 24 68.677 24 68.6766 24C68.6763 24 68.676 24 68.6756 24C68.6753 24 68.675 24 68.6746 24C68.6743 24 68.674 24 68.6736 24C68.6733 24 68.673 24 68.6726 24C68.6723 24 68.672 24 68.6716 24C68.6713 24 68.671 24 68.6706 24C68.6703 24 68.67 24 68.6696 24C68.6693 24 68.669 24 68.6686 24C68.6683 24 68.668 24 68.6676 24C68.6673 24 68.667 24 68.6667 24C68.6663 24 68.666 24 68.6657 24C68.6653 24 68.665 24 68.6647 24C68.6643 24 68.664 24 68.6637 24C68.6634 24 68.663 24 68.6627 24C68.6624 24 68.662 24 68.6617 24C68.6614 24 68.6611 24 68.6607 24C68.6604 24 68.6601 24 68.6598 24C68.6594 24 68.6591 24 68.6588 24C68.6584 24 68.6581 24 68.6578 24C68.6575 24 68.6571 24 68.6568 24C68.6565 24 68.6562 24 68.6558 24C68.6555 24 68.6552 24 68.6549 24C68.6545 24 68.6542 24 68.6539 24C68.6536 24 68.6532 24 68.6529 24C68.6526 24 68.6523 24 68.6519 24C68.6516 24 68.6513 24 68.651 24C68.6507 24 68.6503 24 68.65 24C68.6497 24 68.6494 24 68.649 24C68.6487 24 68.6484 24 68.6481 24C68.6478 24 68.6474 24 68.6471 24C68.6468 24 68.6465 24 68.6461 24C68.6458 24 68.6455 24 68.6452 24C68.6449 24 68.6445 24 68.6442 24C68.6439 24 68.6436 24 68.6433 24C68.6429 24 68.6426 24 68.6423 24C68.642 24 68.6417 24 68.6414 24C68.641 24 68.6407 24 68.6404 24C68.6401 24 68.6398 24 68.6394 24C68.6391 24 68.6388 24 68.6385 24C68.6382 24 68.6379 24 68.6375 24C68.6372 24 68.6369 24 68.6366 24C68.6363 24 68.636 24 68.6356 24C68.6353 24 68.635 24 68.6347 24C68.6344 24 68.6341 24 68.6337 24C68.6334 24 68.6331 24 68.6328 24C68.6325 24 68.6322 24 68.6319 24C68.6315 24 68.6312 24 68.6309 24C68.6306 24 68.6303 24 68.63 24C68.6297 24 68.6294 24 68.629 24C68.6287 24 68.6284 24 68.6281 24C68.6278 24 68.6275 24 68.6272 24C68.6269 24 68.6265 24 68.6262 24C68.6259 24 68.6256 24 68.6253 24C68.625 24 68.6247 24 68.6244 24C68.6241 24 68.6237 24 68.6234 24C68.6231 24 68.6228 24 68.6225 24C68.6222 24 68.6219 24 68.6216 24C68.6213 24 68.621 24 68.6206 24C68.6203 24 68.62 24 68.6197 24C68.6194 24 68.6191 24 68.6188 24C68.6185 24 68.6182 24 68.6179 24C68.6176 24 68.6173 24 68.617 24C68.6166 24 68.6163 24 68.616 24C68.6157 24 68.6154 24 68.6151 24C68.6148 24 68.6145 24 68.6142 24C68.6139 24 68.6136 24 68.6133 24C68.613 24 68.6127 24 68.6124 24C68.6121 24 68.6118 24 68.6115 24C68.6111 24 68.6108 24 68.6105 24C68.6102 24 68.6099 24 68.6096 24C68.6093 24 68.609 24 68.6087 24C68.6084 24 68.6081 24 68.6078 24C68.6075 24 68.6072 24 68.6069 24C68.6066 24 68.6063 24 68.606 24C68.6057 24 68.6054 24 68.6051 24C68.6048 24 68.6045 24 68.6042 24C68.6039 24 68.6036 24 68.6033 24C68.603 24 68.6027 24 68.6024 24C68.6021 24 68.6018 24 68.6015 24C68.6012 24 68.6009 24 68.6006 24C68.6003 24 68.6 24 68.5997 24C68.5994 24 68.5991 24 68.5988 24C68.5985 24 68.5982 24 68.5979 24C68.5976 24 68.5973 24 68.597 24C68.5967 24 68.5964 24 68.5961 24C68.5958 24 68.5955 24 68.5952 24C68.5949 24 68.5946 24 68.5944 24C68.5941 24 68.5938 24 68.5935 24C68.5932 24 68.5929 24 68.5926 24C68.5923 24 68.592 24 68.5917 24C68.5914 24 68.5911 24 68.5908 24C68.5905 24 68.5902 24 68.5899 24C68.5896 24 68.5893 24 68.5891 24C68.5888 24 68.5885 24 68.5882 24C68.5879 24 68.5876 24 68.5873 24C68.587 24 68.5867 24 68.5864 24C68.5861 24 68.5858 24 68.5855 24C68.5853 24 68.585 24 68.5847 24C68.5844 24 68.5841 24 68.5838 24C68.5835 24 68.5832 24 68.5829 24C68.5826 24 68.5823 24 68.5821 24C68.5818 24 68.5815 24 68.5812 24C68.5809 24 68.5806 24 68.5803 24C68.58 24 68.5797 24 68.5795 24C68.5792 24 68.5789 24 68.5786 24C68.5783 24 68.578 24 68.5777 24C68.5774 24 68.5772 24 68.5769 24C68.5766 24 68.5763 24 68.576 24C68.5757 24 68.5754 24 68.5752 24C68.5749 24 68.5746 24 68.5743 24C68.574 24 68.5737 24 68.5734 24C68.5732 24 68.5729 24 68.5726 24C68.5723 24 68.572 24 68.5717 24C68.5714 24 68.5712 24 68.5709 24C68.5706 24 68.5703 24 68.57 24C68.5697 24 68.5695 24 68.5692 24C68.5689 24 68.5686 24 68.5683 24C68.5681 24 68.5678 24 68.5675 24C68.5672 24 68.5669 24 68.5666 24C68.5664 24 68.5661 24 68.5658 24C68.5655 24 68.5652 24 68.565 24C68.5647 24 68.5644 24 68.5641 24C68.5638 24 68.5636 24 68.5633 24C68.563 24 68.5627 24 68.5624 24C68.5622 24 68.5619 24 68.5616 24C68.5613 24 68.561 24 68.5608 24C68.5605 24 68.5602 24 68.5599 24C68.5597 24 68.5594 24 68.5591 24C68.5588 24 68.5585 24 68.5583 24C68.558 24 68.5577 24 68.5574 24C68.5572 24 68.5569 24 68.5566 24C68.5563 24 68.5561 24 68.5558 24C68.5555 24 68.5552 24 68.555 24C68.5547 24 68.5544 24 68.5541 24C68.5539 24 68.5536 24 68.5533 24C68.553 24 68.5528 24 68.5525 24C68.5522 24 68.5519 24 68.5517 24C68.5514 24 68.5511 24 68.5508 24C68.5506 24 68.5503 24 68.55 24C68.5497 24 68.5495 24 68.5492 24C68.5489 24 68.5487 24 68.5484 24C68.5481 24 68.5478 24 68.5476 24C68.5473 24 68.547 24 68.5468 24C68.5465 24 68.5462 24 68.5459 24C68.5457 24 68.5454 24 68.5451 24C68.5449 24 68.5446 24 68.5443 24C68.5441 24 68.5438 24 68.5435 24C68.5433 24 68.543 24 68.5427 24C68.5424 24 68.5422 24 68.5419 24C68.5416 24 68.5414 24 68.5411 24C68.5408 24 68.5406 24 68.5403 24C68.54 24 68.5398 24 68.5395 24C68.5392 24 68.539 24 68.5387 24C68.5384 24 68.5382 24 68.5379 24C68.5376 24 68.5374 24 68.5371 24C68.5368 24 68.5366 24 68.5363 24C68.5361 24 68.5358 24 68.5355 24C68.5353 24 68.535 24 68.5347 24C68.5345 24 68.5342 24 68.5339 24C68.5337 24 68.5334 24 68.5331 24C68.5329 24 68.5326 24 68.5324 24C68.5321 24 68.5318 24 68.5316 24C68.5313 24 68.531 24 68.5308 24C68.5305 24 68.5303 24 68.53 24C68.5297 24 68.5295 24 68.5292 24C68.529 24 68.5287 24 68.5284 24C68.5282 24 68.5279 24 68.5277 24C68.5274 24 68.5271 24 68.5269 24C68.5266 24 68.5264 24 68.5261 24C68.5258 24 68.5256 24 68.5253 24C68.5251 24 68.5248 24 68.5245 24C68.5243 24 68.524 24 68.5238 24C68.5235 24 68.5233 24 68.523 24C68.5227 24 68.5225 24 68.5222 24C68.522 24 68.5217 24 68.5215 24C68.5212 24 68.5209 24 68.5207 24C68.5204 24 68.5202 24 68.5199 24C68.5197 24 68.5194 24 68.5192 24C68.5189 24 68.5186 24 68.5184 24C68.5181 24 68.5179 24 68.5176 24C68.5174 24 68.5171 24 68.5169 24C68.5166 24 68.5164 24 68.5161 24C68.5159 24 68.5156 24 68.5153 24C68.5151 24 68.5148 24 68.5146 24C68.5143 24 68.5141 24 68.5138 24C68.5136 24 68.5133 24 68.5131 24C68.5128 24 68.5126 24 68.5123 24C68.5121 24 68.5118 24 68.5116 24C68.5113 24 68.5111 24 68.5108 24C68.5106 24 68.5103 24 68.5101 24C68.5098 24 68.5096 24 68.5093 24C68.5091 24 68.5088 24 68.5086 24C68.5083 24 68.5081 24 68.5078 24C68.5076 24 68.5073 24 68.5071 24C68.5068 24 68.5066 24 68.5063 24C68.5061 24 68.5058 24 68.5056 24C68.5053 24 68.5051 24 68.5049 24C68.5046 24 68.5044 24 68.5041 24C68.5039 24 68.5036 24 68.5034 24C68.5031 24 68.5029 24 68.5026 24C68.5024 24 68.5022 24 68.5019 24C68.5017 24 68.5014 24 68.5012 24C68.5009 24 68.5007 24 68.5004 24C68.5002 24 68.5 24 68.4997 24C68.4995 24 68.4992 24 68.499 24C68.4987 24 68.4985 24 68.4983 24C68.498 24 68.4978 24 68.4975 24C68.4973 24 68.497 24 68.4968 24C68.4966 24 68.4963 24 68.4961 24C68.4958 24 68.4956 24 68.4953 24C68.4951 24 68.4949 24 68.4946 24C68.4944 24 68.4941 24 68.4939 24C68.4937 24 68.4934 24 68.4932 24C68.4929 24 68.4927 24 68.4925 24C68.4922 24 68.492 24 68.4918 24C68.4915 24 68.4913 24 68.491 24C68.4908 24 68.4906 24 68.4903 24C68.4901 24 68.4899 24 68.4896 24C68.4894 24 68.4891 24 68.4889 24C68.4887 24 68.4884 24 68.4882 24C68.488 24 68.4877 24 68.4875 24C68.4872 24 68.487 24 68.4868 24C68.4865 24 68.4863 24 68.4861 24C68.4858 24 68.4856 24 68.4854 24C68.4851 24 68.4849 24 68.4847 24C68.4844 24 68.4842 24 68.484 24C68.4837 24 68.4835 24 68.4833 24C68.483 24 68.4828 24 68.4826 24C68.4823 24 68.4821 24 68.4819 24C68.4816 24 68.4814 24 68.4812 24C68.4809 24 68.4807 24 68.4805 24C68.4802 24 68.48 24 68.4798 24C68.4796 24 68.4793 24 68.4791 24C68.4789 24 68.4786 24 68.4784 24C68.4782 24 68.4779 24 68.4777 24C68.4775 24 68.4773 24 68.477 24C68.4768 24 68.4766 24 68.4763 24C68.4761 24 68.4759 24 68.4756 24C68.4754 24 68.4752 24 68.475 24C68.4747 24 68.4745 24 68.4743 24C68.4741 24 68.4738 24 68.4736 24C68.4734 24 68.4731 24 68.4729 24C68.4727 24 68.4725 24 68.4722 24C68.472 24 68.4718 24 68.4716 24C68.4713 24 68.4711 24 68.4709 24C68.4707 24 68.4704 24 68.4702 24C68.47 24 68.4698 24 68.4695 24C68.4693 24 68.4691 24 68.4689 24C68.4686 24 68.4684 24 68.4682 24C68.468 24 68.4677 24 68.4675 24C68.4673 24 68.4671 24 68.4669 24C68.4666 24 68.4664 24 68.4662 24C68.466 24 68.4657 24 68.4655 24C68.4653 24 68.4651 24 68.4649 24C68.4646 24 68.4644 24 68.4642 24C68.464 24 68.4638 24 68.4635 24C68.4633 24 68.4631 24 68.4629 24C68.4627 24 68.4624 24 68.4622 24C68.462 24 68.4618 24 68.4616 24C68.4613 24 68.4611 24 68.4609 24C68.4607 24 68.4605 24 68.4603 24C68.46 24 68.4598 24 68.4596 24C68.4594 24 68.4592 24 68.4589 24C68.4587 24 68.4585 24 68.4583 24C68.4581 24 68.4579 24 68.4576 24C68.4574 24 68.4572 24 68.457 24C68.4568 24 68.4566 24 68.4564 24C68.4561 24 68.4559 24 68.4557 24C68.4555 24 68.4553 24 68.4551 24C68.4548 24 68.4546 24 68.4544 24C68.4542 24 68.454 24 68.4538 24C68.4536 24 68.4534 24 68.4531 24C68.4529 24 68.4527 24 68.4525 24C68.4523 24 68.4521 24 68.4519 24C68.4517 24 68.4514 24 68.4512 24C68.451 24 68.4508 24 68.4506 24C68.4504 24 68.4502 24 68.45 24C68.4497 24 68.4495 24 68.4493 24C68.4491 24 68.4489 24 68.4487 24C68.4485 24 68.4483 24 68.4481 24C68.4479 24 68.4476 24 68.4474 24C68.4472 24 68.447 24 68.4468 24C68.4466 24 68.4464 24 68.4462 24C68.446 24 68.4458 24 68.4456 24C68.4454 24 68.4451 24 68.4449 24C68.4447 24 68.4445 24 68.4443 24C68.4441 24 68.4439 24 68.4437 24C68.4435 24 68.4433 24 68.4431 24C68.4429 24 68.4427 24 68.4425 24C68.4423 24 68.4421 24 68.4418 24C68.4416 24 68.4414 24 68.4412 24C68.441 24 68.4408 24 68.4406 24C68.4404 24 68.4402 24 68.44 24C68.4398 24 68.4396 24 68.4394 24C68.4392 24 68.439 24 68.4388 24C68.4386 24 68.4384 24 68.4382 24C68.438 24 68.4378 24 68.4376 24C68.4374 24 68.4372 24 68.437 24C68.4368 24 68.4366 24 68.4364 24C68.4362 24 68.436 24 68.4358 24C68.4356 24 68.4354 24 68.4352 24C68.435 24 68.4348 24 68.4346 24C68.4344 24 68.4342 24 68.434 24C68.4338 24 68.4336 24 68.4334 24C68.4332 24 68.433 24 68.4328 24C68.4326 24 68.4324 24 68.4322 24C68.432 24 68.4318 24 68.4316 24C68.4314 24 68.4312 24 68.431 24C68.4308 24 68.4306 24 68.4304 24C68.4302 24 68.43 24 68.4298 24C68.4296 24 68.4294 24 68.4292 24C68.429 24 68.4288 24 68.4286 24C68.4284 24 68.4283 24 68.4281 24C68.4279 24 68.4277 24 68.4275 24C68.4273 24 68.4271 24 68.4269 24C68.4267 24 68.4265 24 68.4263 24C68.4261 24 68.4259 24 68.4257 24C68.4255 24 68.4253 24 68.4252 24C68.425 24 68.4248 24 68.4246 24C68.4244 24 68.4242 24 68.424 24C68.4238 24 68.4236 24 68.4234 24C68.4232 24 68.423 24 68.4229 24V26C68.423 26 68.4232 26 68.4234 26C68.4236 26 68.4238 26 68.424 26C68.4242 26 68.4244 26 68.4246 26C68.4248 26 68.425 26 68.4252 26C68.4253 26 68.4255 26 68.4257 26C68.4259 26 68.4261 26 68.4263 26C68.4265 26 68.4267 26 68.4269 26C68.4271 26 68.4273 26 68.4275 26C68.4277 26 68.4279 26 68.4281 26C68.4283 26 68.4284 26 68.4286 26C68.4288 26 68.429 26 68.4292 26C68.4294 26 68.4296 26 68.4298 26C68.43 26 68.4302 26 68.4304 26C68.4306 26 68.4308 26 68.431 26C68.4312 26 68.4314 26 68.4316 26C68.4318 26 68.432 26 68.4322 26C68.4324 26 68.4326 26 68.4328 26C68.433 26 68.4332 26 68.4334 26C68.4336 26 68.4338 26 68.434 26C68.4342 26 68.4344 26 68.4346 26C68.4348 26 68.435 26 68.4352 26C68.4354 26 68.4356 26 68.4358 26C68.436 26 68.4362 26 68.4364 26C68.4366 26 68.4368 26 68.437 26C68.4372 26 68.4374 26 68.4376 26C68.4378 26 68.438 26 68.4382 26C68.4384 26 68.4386 26 68.4388 26C68.439 26 68.4392 26 68.4394 26C68.4396 26 68.4398 26 68.44 26C68.4402 26 68.4404 26 68.4406 26C68.4408 26 68.441 26 68.4412 26C68.4414 26 68.4416 26 68.4418 26C68.4421 26 68.4423 26 68.4425 26C68.4427 26 68.4429 26 68.4431 26C68.4433 26 68.4435 26 68.4437 26C68.4439 26 68.4441 26 68.4443 26C68.4445 26 68.4447 26 68.4449 26C68.4451 26 68.4454 26 68.4456 26C68.4458 26 68.446 26 68.4462 26C68.4464 26 68.4466 26 68.4468 26C68.447 26 68.4472 26 68.4474 26C68.4476 26 68.4479 26 68.4481 26C68.4483 26 68.4485 26 68.4487 26C68.4489 26 68.4491 26 68.4493 26C68.4495 26 68.4497 26 68.45 26C68.4502 26 68.4504 26 68.4506 26C68.4508 26 68.451 26 68.4512 26C68.4514 26 68.4517 26 68.4519 26C68.4521 26 68.4523 26 68.4525 26C68.4527 26 68.4529 26 68.4531 26C68.4534 26 68.4536 26 68.4538 26C68.454 26 68.4542 26 68.4544 26C68.4546 26 68.4548 26 68.4551 26C68.4553 26 68.4555 26 68.4557 26C68.4559 26 68.4561 26 68.4564 26C68.4566 26 68.4568 26 68.457 26C68.4572 26 68.4574 26 68.4576 26C68.4579 26 68.4581 26 68.4583 26C68.4585 26 68.4587 26 68.4589 26C68.4592 26 68.4594 26 68.4596 26C68.4598 26 68.46 26 68.4603 26C68.4605 26 68.4607 26 68.4609 26C68.4611 26 68.4613 26 68.4616 26C68.4618 26 68.462 26 68.4622 26C68.4624 26 68.4627 26 68.4629 26C68.4631 26 68.4633 26 68.4635 26C68.4638 26 68.464 26 68.4642 26C68.4644 26 68.4646 26 68.4649 26C68.4651 26 68.4653 26 68.4655 26C68.4657 26 68.466 26 68.4662 26C68.4664 26 68.4666 26 68.4669 26C68.4671 26 68.4673 26 68.4675 26C68.4677 26 68.468 26 68.4682 26C68.4684 26 68.4686 26 68.4689 26C68.4691 26 68.4693 26 68.4695 26C68.4698 26 68.47 26 68.4702 26C68.4704 26 68.4707 26 68.4709 26C68.4711 26 68.4713 26 68.4716 26C68.4718 26 68.472 26 68.4722 26C68.4725 26 68.4727 26 68.4729 26C68.4731 26 68.4734 26 68.4736 26C68.4738 26 68.4741 26 68.4743 26C68.4745 26 68.4747 26 68.475 26C68.4752 26 68.4754 26 68.4756 26C68.4759 26 68.4761 26 68.4763 26C68.4766 26 68.4768 26 68.477 26C68.4773 26 68.4775 26 68.4777 26C68.4779 26 68.4782 26 68.4784 26C68.4786 26 68.4789 26 68.4791 26C68.4793 26 68.4796 26 68.4798 26C68.48 26 68.4802 26 68.4805 26C68.4807 26 68.4809 26 68.4812 26C68.4814 26 68.4816 26 68.4819 26C68.4821 26 68.4823 26 68.4826 26C68.4828 26 68.483 26 68.4833 26C68.4835 26 68.4837 26 68.484 26C68.4842 26 68.4844 26 68.4847 26C68.4849 26 68.4851 26 68.4854 26C68.4856 26 68.4858 26 68.4861 26C68.4863 26 68.4865 26 68.4868 26C68.487 26 68.4872 26 68.4875 26C68.4877 26 68.488 26 68.4882 26C68.4884 26 68.4887 26 68.4889 26C68.4891 26 68.4894 26 68.4896 26C68.4899 26 68.4901 26 68.4903 26C68.4906 26 68.4908 26 68.491 26C68.4913 26 68.4915 26 68.4918 26C68.492 26 68.4922 26 68.4925 26C68.4927 26 68.4929 26 68.4932 26C68.4934 26 68.4937 26 68.4939 26C68.4941 26 68.4944 26 68.4946 26C68.4949 26 68.4951 26 68.4953 26C68.4956 26 68.4958 26 68.4961 26C68.4963 26 68.4966 26 68.4968 26C68.497 26 68.4973 26 68.4975 26C68.4978 26 68.498 26 68.4983 26C68.4985 26 68.4987 26 68.499 26C68.4992 26 68.4995 26 68.4997 26C68.5 26 68.5002 26 68.5004 26C68.5007 26 68.5009 26 68.5012 26C68.5014 26 68.5017 26 68.5019 26C68.5022 26 68.5024 26 68.5026 26C68.5029 26 68.5031 26 68.5034 26C68.5036 26 68.5039 26 68.5041 26C68.5044 26 68.5046 26 68.5049 26C68.5051 26 68.5053 26 68.5056 26C68.5058 26 68.5061 26 68.5063 26C68.5066 26 68.5068 26 68.5071 26C68.5073 26 68.5076 26 68.5078 26C68.5081 26 68.5083 26 68.5086 26C68.5088 26 68.5091 26 68.5093 26C68.5096 26 68.5098 26 68.5101 26C68.5103 26 68.5106 26 68.5108 26C68.5111 26 68.5113 26 68.5116 26C68.5118 26 68.5121 26 68.5123 26C68.5126 26 68.5128 26 68.5131 26C68.5133 26 68.5136 26 68.5138 26C68.5141 26 68.5143 26 68.5146 26C68.5148 26 68.5151 26 68.5153 26C68.5156 26 68.5159 26 68.5161 26C68.5164 26 68.5166 26 68.5169 26C68.5171 26 68.5174 26 68.5176 26C68.5179 26 68.5181 26 68.5184 26C68.5186 26 68.5189 26 68.5192 26C68.5194 26 68.5197 26 68.5199 26C68.5202 26 68.5204 26 68.5207 26C68.5209 26 68.5212 26 68.5215 26C68.5217 26 68.522 26 68.5222 26C68.5225 26 68.5227 26 68.523 26C68.5233 26 68.5235 26 68.5238 26C68.524 26 68.5243 26 68.5245 26C68.5248 26 68.5251 26 68.5253 26C68.5256 26 68.5258 26 68.5261 26C68.5264 26 68.5266 26 68.5269 26C68.5271 26 68.5274 26 68.5277 26C68.5279 26 68.5282 26 68.5284 26C68.5287 26 68.529 26 68.5292 26C68.5295 26 68.5297 26 68.53 26C68.5303 26 68.5305 26 68.5308 26C68.531 26 68.5313 26 68.5316 26C68.5318 26 68.5321 26 68.5324 26C68.5326 26 68.5329 26 68.5331 26C68.5334 26 68.5337 26 68.5339 26C68.5342 26 68.5345 26 68.5347 26C68.535 26 68.5353 26 68.5355 26C68.5358 26 68.5361 26 68.5363 26C68.5366 26 68.5368 26 68.5371 26C68.5374 26 68.5376 26 68.5379 26C68.5382 26 68.5384 26 68.5387 26C68.539 26 68.5392 26 68.5395 26C68.5398 26 68.54 26 68.5403 26C68.5406 26 68.5408 26 68.5411 26C68.5414 26 68.5416 26 68.5419 26C68.5422 26 68.5424 26 68.5427 26C68.543 26 68.5433 26 68.5435 26C68.5438 26 68.5441 26 68.5443 26C68.5446 26 68.5449 26 68.5451 26C68.5454 26 68.5457 26 68.5459 26C68.5462 26 68.5465 26 68.5468 26C68.547 26 68.5473 26 68.5476 26C68.5478 26 68.5481 26 68.5484 26C68.5487 26 68.5489 26 68.5492 26C68.5495 26 68.5497 26 68.55 26C68.5503 26 68.5506 26 68.5508 26C68.5511 26 68.5514 26 68.5517 26C68.5519 26 68.5522 26 68.5525 26C68.5528 26 68.553 26 68.5533 26C68.5536 26 68.5539 26 68.5541 26C68.5544 26 68.5547 26 68.555 26C68.5552 26 68.5555 26 68.5558 26C68.5561 26 68.5563 26 68.5566 26C68.5569 26 68.5572 26 68.5574 26C68.5577 26 68.558 26 68.5583 26C68.5585 26 68.5588 26 68.5591 26C68.5594 26 68.5597 26 68.5599 26C68.5602 26 68.5605 26 68.5608 26C68.561 26 68.5613 26 68.5616 26C68.5619 26 68.5622 26 68.5624 26C68.5627 26 68.563 26 68.5633 26C68.5636 26 68.5638 26 68.5641 26C68.5644 26 68.5647 26 68.565 26C68.5652 26 68.5655 26 68.5658 26C68.5661 26 68.5664 26 68.5666 26C68.5669 26 68.5672 26 68.5675 26C68.5678 26 68.5681 26 68.5683 26C68.5686 26 68.5689 26 68.5692 26C68.5695 26 68.5697 26 68.57 26C68.5703 26 68.5706 26 68.5709 26C68.5712 26 68.5714 26 68.5717 26C68.572 26 68.5723 26 68.5726 26C68.5729 26 68.5732 26 68.5734 26C68.5737 26 68.574 26 68.5743 26C68.5746 26 68.5749 26 68.5752 26C68.5754 26 68.5757 26 68.576 26C68.5763 26 68.5766 26 68.5769 26C68.5772 26 68.5774 26 68.5777 26C68.578 26 68.5783 26 68.5786 26C68.5789 26 68.5792 26 68.5795 26C68.5797 26 68.58 26 68.5803 26C68.5806 26 68.5809 26 68.5812 26C68.5815 26 68.5818 26 68.5821 26C68.5823 26 68.5826 26 68.5829 26C68.5832 26 68.5835 26 68.5838 26C68.5841 26 68.5844 26 68.5847 26C68.585 26 68.5853 26 68.5855 26C68.5858 26 68.5861 26 68.5864 26C68.5867 26 68.587 26 68.5873 26C68.5876 26 68.5879 26 68.5882 26C68.5885 26 68.5888 26 68.5891 26C68.5893 26 68.5896 26 68.5899 26C68.5902 26 68.5905 26 68.5908 26C68.5911 26 68.5914 26 68.5917 26C68.592 26 68.5923 26 68.5926 26C68.5929 26 68.5932 26 68.5935 26C68.5938 26 68.5941 26 68.5944 26C68.5946 26 68.5949 26 68.5952 26C68.5955 26 68.5958 26 68.5961 26C68.5964 26 68.5967 26 68.597 26C68.5973 26 68.5976 26 68.5979 26C68.5982 26 68.5985 26 68.5988 26C68.5991 26 68.5994 26 68.5997 26C68.6 26 68.6003 26 68.6006 26C68.6009 26 68.6012 26 68.6015 26C68.6018 26 68.6021 26 68.6024 26C68.6027 26 68.603 26 68.6033 26C68.6036 26 68.6039 26 68.6042 26C68.6045 26 68.6048 26 68.6051 26C68.6054 26 68.6057 26 68.606 26C68.6063 26 68.6066 26 68.6069 26C68.6072 26 68.6075 26 68.6078 26C68.6081 26 68.6084 26 68.6087 26C68.609 26 68.6093 26 68.6096 26C68.6099 26 68.6102 26 68.6105 26C68.6108 26 68.6111 26 68.6115 26C68.6118 26 68.6121 26 68.6124 26C68.6127 26 68.613 26 68.6133 26C68.6136 26 68.6139 26 68.6142 26C68.6145 26 68.6148 26 68.6151 26C68.6154 26 68.6157 26 68.616 26C68.6163 26 68.6166 26 68.617 26C68.6173 26 68.6176 26 68.6179 26C68.6182 26 68.6185 26 68.6188 26C68.6191 26 68.6194 26 68.6197 26C68.62 26 68.6203 26 68.6206 26C68.621 26 68.6213 26 68.6216 26C68.6219 26 68.6222 26 68.6225 26C68.6228 26 68.6231 26 68.6234 26C68.6237 26 68.6241 26 68.6244 26C68.6247 26 68.625 26 68.6253 26C68.6256 26 68.6259 26 68.6262 26C68.6265 26 68.6269 26 68.6272 26C68.6275 26 68.6278 26 68.6281 26C68.6284 26 68.6287 26 68.629 26C68.6294 26 68.6297 26 68.63 26C68.6303 26 68.6306 26 68.6309 26C68.6312 26 68.6315 26 68.6319 26C68.6322 26 68.6325 26 68.6328 26C68.6331 26 68.6334 26 68.6337 26C68.6341 26 68.6344 26 68.6347 26C68.635 26 68.6353 26 68.6356 26C68.636 26 68.6363 26 68.6366 26C68.6369 26 68.6372 26 68.6375 26C68.6379 26 68.6382 26 68.6385 26C68.6388 26 68.6391 26 68.6394 26C68.6398 26 68.6401 26 68.6404 26C68.6407 26 68.641 26 68.6414 26C68.6417 26 68.642 26 68.6423 26C68.6426 26 68.6429 26 68.6433 26C68.6436 26 68.6439 26 68.6442 26C68.6445 26 68.6449 26 68.6452 26C68.6455 26 68.6458 26 68.6461 26C68.6465 26 68.6468 26 68.6471 26C68.6474 26 68.6478 26 68.6481 26C68.6484 26 68.6487 26 68.649 26C68.6494 26 68.6497 26 68.65 26C68.6503 26 68.6507 26 68.651 26C68.6513 26 68.6516 26 68.6519 26C68.6523 26 68.6526 26 68.6529 26C68.6532 26 68.6536 26 68.6539 26C68.6542 26 68.6545 26 68.6549 26C68.6552 26 68.6555 26 68.6558 26C68.6562 26 68.6565 26 68.6568 26C68.6571 26 68.6575 26 68.6578 26C68.6581 26 68.6584 26 68.6588 26C68.6591 26 68.6594 26 68.6598 26C68.6601 26 68.6604 26 68.6607 26C68.6611 26 68.6614 26 68.6617 26C68.662 26 68.6624 26 68.6627 26C68.663 26 68.6634 26 68.6637 26C68.664 26 68.6643 26 68.6647 26C68.665 26 68.6653 26 68.6657 26C68.666 26 68.6663 26 68.6667 26C68.667 26 68.6673 26 68.6676 26C68.668 26 68.6683 26 68.6686 26C68.669 26 68.6693 26 68.6696 26C68.67 26 68.6703 26 68.6706 26C68.671 26 68.6713 26 68.6716 26C68.672 26 68.6723 26 68.6726 26C68.673 26 68.6733 26 68.6736 26C68.674 26 68.6743 26 68.6746 26C68.675 26 68.6753 26 68.6756 26C68.676 26 68.6763 26 68.6766 26C68.677 26 68.6773 26 68.6776 26C68.678 26 68.6783 26 68.6786 26C68.679 26 68.6793 26 68.6796 26C68.68 26 68.6803 26 68.6807 26C68.681 26 68.6813 26 68.6817 26C68.682 26 68.6823 26 68.6827 26C68.683 26 68.6834 26 68.6837 26C68.684 26 68.6844 26 68.6847 26C68.685 26 68.6854 26 68.6857 26C68.6861 26 68.6864 26 68.6867 26C68.6871 26 68.6874 26 68.6878 26C68.6881 26 68.6884 26 68.6888 26C68.6891 26 68.6895 26 68.6898 26C68.6901 26 68.6905 26 68.6908 26C68.6912 26 68.6915 26 68.6918 26C68.6922 26 68.6925 26 68.6929 26C68.6932 26 68.6935 26 68.6939 26C68.6942 26 68.6946 26 68.6949 26C68.6953 26 68.6956 26 68.6959 26C68.6963 26 68.6966 26 68.697 26C68.6973 26 68.6977 26 68.698 26C68.6984 26 68.6987 26 68.699 26C68.6994 26 68.6997 26 68.7001 26C68.7004 26 68.7008 26 68.7011 26C68.7015 26 68.7018 26 68.7021 26C68.7025 26 68.7028 26 68.7032 26C68.7035 26 68.7039 26 68.7042 26C68.7046 26 68.7049 26 68.7053 26C68.7056 26 68.706 26 68.7063 26C68.7067 26 68.707 26 68.7074 26C68.7077 26 68.708 26 68.7084 26C68.7087 26 68.7091 26 68.7094 26C68.7098 26 68.7101 26 68.7105 26C68.7108 26 68.7112 26 68.7115 26C68.7119 26 68.7122 26 68.7126 26C68.7129 26 68.7133 26 68.7136 26C68.714 26 68.7143 26 68.7147 26C68.715 26 68.7154 26 68.7157 26C68.7161 26 68.7165 26 68.7168 26C68.7172 26 68.7175 26 68.7179 26C68.7182 26 68.7186 26 68.7189 26C68.7193 26 68.7196 26 68.72 26C68.7203 26 68.7207 26 68.721 26C68.7214 26 68.7217 26 68.7221 26C68.7225 26 68.7228 26 68.7232 26C68.7235 26 68.7239 26 68.7242 26C68.7246 26 68.7249 26 68.7253 26C68.7257 26 68.726 26 68.7264 26C68.7267 26 68.7271 26 68.7274 26C68.7278 26 68.7281 26 68.7285 26C68.7289 26 68.7292 26 68.7296 26C68.7299 26 68.7303 26 68.7306 26C68.731 26 68.7314 26 68.7317 26C68.7321 26 68.7324 26 68.7328 26C68.7332 26 68.7335 26 68.7339 26C68.7342 26 68.7346 26 68.735 26C68.7353 26 68.7357 26 68.736 26C68.7364 26 68.7368 26 68.7371 26C68.7375 26 68.7378 26 68.7382 26C68.7386 26 68.7389 26 68.7393 26C68.7396 26 68.74 26 68.7404 26C68.7407 26 68.7411 26 68.7415 26C68.7418 26 68.7422 26 68.7425 26C68.7429 26 68.7433 26 68.7436 26C68.744 26 68.7444 26 68.7447 26C68.7451 26 68.7455 26 68.7458 26C68.7462 26 68.7465 26 68.7469 26C68.7473 26 68.7476 26 68.748 26C68.7484 26 68.7487 26 68.7491 26C68.7495 26 68.7498 26 68.7502 26C68.7506 26 68.7509 26 68.7513 26C68.7517 26 68.752 26 68.7524 26C68.7528 26 68.7531 26 68.7535 26C68.7539 26 68.7542 26 68.7546 26C68.755 26 68.7553 26 68.7557 26C68.7561 26 68.7564 26 68.7568 26C68.7572 26 68.7575 26 68.7579 26C68.7583 26 68.7587 26 68.759 26C68.7594 26 68.7598 26 68.7601 26C68.7605 26 68.7609 26 68.7612 26C68.7616 26 68.762 26 68.7624 26C68.7627 26 68.7631 26 68.7635 26C68.7638 26 68.7642 26 68.7646 26C68.765 26 68.7653 26 68.7657 26C68.7661 26 68.7664 26 68.7668 26C68.7672 26 68.7676 26 68.7679 26C68.7683 26 68.7687 26 68.7691 26C68.7694 26 68.7698 26 68.7702 26C68.7705 26 68.7709 26 68.7713 26C68.7717 26 68.772 26 68.7724 26C68.7728 26 68.7732 26 68.7735 26C68.7739 26 68.7743 26 68.7747 26C68.7751 26 68.7754 26 68.7758 26C68.7762 26 68.7766 26 68.7769 26C68.7773 26 68.7777 26 68.7781 26C68.7784 26 68.7788 26 68.7792 26C68.7796 26 68.78 26 68.7803 26C68.7807 26 68.7811 26 68.7815 26C68.7818 26 68.7822 26 68.7826 26C68.783 26 68.7834 26 68.7837 26C68.7841 26 68.7845 26 68.7849 26C68.7853 26 68.7856 26 68.786 26C68.7864 26 68.7868 26 68.7872 26C68.7875 26 68.7879 26 68.7883 26C68.7887 26 68.7891 26 68.7894 26C68.7898 26 68.7902 26 68.7906 26C68.791 26 68.7914 26 68.7917 26C68.7921 26 68.7925 26 68.7929 26C68.7933 26 68.7937 26 68.794 26C68.7944 26 68.7948 26 68.7952 26C68.7956 26 68.796 26 68.7963 26C68.7967 26 68.7971 26 68.7975 26C68.7979 26 68.7983 26 68.7986 26C68.799 26 68.7994 26 68.7998 26C68.8002 26 68.8006 26 68.801 26C68.8013 26 68.8017 26 68.8021 26C68.8025 26 68.8029 26 68.8033 26C68.8037 26 68.8041 26 68.8044 26C68.8048 26 68.8052 26 68.8056 26C68.806 26 68.8064 26 68.8068 26C68.8072 26 68.8075 26 68.8079 26C68.8083 26 68.8087 26 68.8091 26C68.8095 26 68.8099 26 68.8103 26C68.8107 26 68.811 26 68.8114 26C68.8118 26 68.8122 26 68.8126 26C68.813 26 68.8134 26 68.8138 26C68.8142 26 68.8146 26 68.815 26C68.8153 26 68.8157 26 68.8161 26C68.8165 26 68.8169 26 68.8173 26C68.8177 26 68.8181 26 68.8185 26C68.8189 26 68.8193 26 68.8197 26C68.8201 26 68.8204 26 68.8208 26C68.8212 26 68.8216 26 68.822 26C68.8224 26 68.8228 26 68.8232 26C68.8236 26 68.824 26 68.8244 26C68.8248 26 68.8252 26 68.8256 26C68.826 26 68.8264 26 68.8268 26C68.8272 26 68.8276 26 68.828 26C68.8284 26 68.8287 26 68.8291 26C68.8295 26 68.8299 26 68.8303 26C68.8307 26 68.8311 26 68.8315 26C68.8319 26 68.8323 26 68.8327 26C68.8331 26 68.8335 26 68.8339 26C68.8343 26 68.8347 26 68.8351 26C68.8355 26 68.8359 26 68.8363 26C68.8367 26 68.8371 26 68.8375 26C68.8379 26 68.8383 26 68.8387 26C68.8391 26 68.8395 26 68.8399 26C68.8403 26 68.8407 26 68.8411 26C68.8415 26 68.8419 26 68.8423 26C68.8427 26 68.8431 26 68.8435 26C68.8439 26 68.8443 26 68.8447 26C68.8451 26 68.8455 26 68.8459 26C68.8463 26 68.8467 26 68.8472 26C68.8476 26 68.848 26 68.8484 26C68.8488 26 68.8492 26 68.8496 26C68.85 26 68.8504 26 68.8508 26C68.8512 26 68.8516 26 68.852 26C68.8524 26 68.8528 26 68.8532 26C68.8536 26 68.854 26 68.8544 26C68.8548 26 68.8553 26 68.8557 26C68.8561 26 68.8565 26 68.8569 26C68.8573 26 68.8577 26 68.8581 26C68.8585 26 68.8589 26 68.8593 26C68.8597 26 68.8601 26 68.8605 26C68.861 26 68.8614 26 68.8618 26C68.8622 26 68.8626 26 68.863 26C68.8634 26 68.8638 26 68.8642 26C68.8646 26 68.8651 26 68.8655 26C68.8659 26 68.8663 26 68.8667 26C68.8671 26 68.8675 26 68.8679 26C68.8683 26 68.8687 26 68.8692 26C68.8696 26 68.87 26 68.8704 26C68.8708 26 68.8712 26 68.8716 26C68.872 26 68.8725 26 68.8729 26C68.8733 26 68.8737 26 68.8741 26C68.8745 26 68.8749 26 68.8753 26C68.8758 26 68.8762 26 68.8766 26C68.877 26 68.8774 26 68.8778 26C68.8783 26 68.8787 26 68.8791 26C68.8795 26 68.8799 26 68.8803 26C68.8807 26 68.8812 26 68.8816 26C68.882 26 68.8824 26 68.8828 26C68.8832 26 68.8837 26 68.8841 26C68.8845 26 68.8849 26 68.8853 26C68.8857 26 68.8862 26 68.8866 26C68.887 26 68.8874 26 68.8878 26C68.8882 26 68.8887 26 68.8891 26C68.8895 26 68.8899 26 68.8903 26C68.8908 26 68.8912 26 68.8916 26V24ZM68.4229 24H62.0947V26H68.4229V24ZM63.0947 25V24.9414H61.0947V25H63.0947ZM63.0563 25.2161C63.1292 24.9607 63.1905 24.6653 63.2431 24.3389L61.2686 24.0205C61.2236 24.2995 61.1774 24.512 61.1332 24.6667L63.0563 25.2161ZM63.2376 24.3697C63.3051 24.0211 63.3577 23.608 63.3986 23.1384L61.4061 22.9651C61.3688 23.3939 61.3238 23.7328 61.2741 23.9897L63.2376 24.3697ZM63.3986 23.1384C63.4397 22.6657 63.4698 22.1143 63.4897 21.4868L61.4907 21.4233C61.4716 22.0264 61.4431 22.5394 61.4061 22.9651L63.3986 23.1384ZM63.4897 21.4863C63.5097 20.8482 63.5195 20.1098 63.5195 19.2725H61.5195C61.5195 20.0953 61.5098 20.812 61.4907 21.4238L63.4897 21.4863ZM63.5195 19.2725V9.73633H61.5195V19.2725H63.5195ZM63.5195 9.73633C63.5195 8.89904 63.5097 8.16534 63.4897 7.53663L61.4907 7.60009C61.5098 8.20184 61.5195 8.91346 61.5195 9.73633H63.5195ZM63.4897 7.53712C63.4698 6.90012 63.4397 6.34354 63.3986 5.8704L61.4061 6.04366C61.4431 6.46896 61.4716 6.9866 61.4907 7.59959L63.4897 7.53712ZM63.3987 5.87223C63.358 5.39334 63.3054 4.9744 63.2376 4.62443L61.2741 5.00448C61.3235 5.25998 61.3686 5.60275 61.4059 6.04183L63.3987 5.87223ZM63.2431 4.65522C63.1905 4.32881 63.1292 4.03349 63.0563 3.77801L61.1332 4.32746C61.1774 4.48214 61.2236 4.69463 61.2686 4.97369L63.2431 4.65522ZM63.0947 4.05273V3.99414H61.0947V4.05273H63.0947ZM62.0947 4.99414H65.6104V2.99414H62.0947V4.99414ZM64.6104 3.99414V4.05273H66.6104V3.99414H64.6104ZM64.6488 3.77801C64.5796 4.02028 64.5147 4.30454 64.4528 4.62443L66.4164 5.00448C66.4716 4.7189 66.5239 4.49534 66.5719 4.32746L64.6488 3.77801ZM64.4473 4.65522C64.3931 4.99157 64.3466 5.39935 64.3063 5.87223L66.2991 6.04183C66.337 5.59675 66.3784 5.24281 66.4218 4.97369L64.4473 4.65522ZM64.3049 5.89195C64.275 6.34908 64.2454 6.8926 64.2159 7.52154L66.2137 7.61518C66.2429 6.99412 66.2718 6.46342 66.3006 6.02211L64.3049 5.89195ZM64.2153 7.53663C64.1954 8.16534 64.1855 8.89904 64.1855 9.73633H66.1855C66.1855 8.91346 66.1952 8.20184 66.2143 7.60009L64.2153 7.53663ZM64.1855 9.73633V23.7109H66.1855V9.73633H64.1855ZM79.0254 24.9414L78.0639 24.6667L78.0254 24.8014V24.9414H79.0254ZM79.4062 21.4551L80.4057 21.4868L80.4058 21.4863L79.4062 21.4551ZM79.4062 7.56836L78.4067 7.59959L78.4068 7.60009L79.4062 7.56836ZM79.3184 5.95703L78.322 6.04183L78.3221 6.04366L79.3184 5.95703ZM79.0254 4.05273H78.0254V4.19279L78.0639 4.32746L79.0254 4.05273ZM79.0254 3.99414V2.99414H78.0254V3.99414H79.0254ZM82.5264 3.99414H83.5264V2.99414H82.5264V3.99414ZM82.5264 4.05273L83.4879 4.32746L83.5264 4.19279V4.05273H82.5264ZM82.3506 4.81445L81.3688 4.62443L81.3658 4.63978L81.3633 4.65522L82.3506 4.81445ZM82.2188 5.95703L81.2224 5.87223L81.2215 5.88208L81.2209 5.89195L82.2188 5.95703ZM82.1309 7.56836L81.132 7.52154L81.1316 7.52908L81.1314 7.53663L82.1309 7.56836ZM82.1309 21.4551L81.1313 21.4863L81.1316 21.4945L81.132 21.5026L82.1309 21.4551ZM82.2188 23.0518L81.2209 23.1168L81.2216 23.1276L81.2225 23.1384L82.2188 23.0518ZM82.3506 24.1797L81.3633 24.3389L81.3658 24.3544L81.3688 24.3697L82.3506 24.1797ZM82.5264 24.9414H83.5264V24.8014L83.4879 24.6667L82.5264 24.9414ZM82.5264 25V26H83.5264V25H82.5264ZM79.0254 25H78.0254V26H79.0254V25ZM79.9869 25.2161C80.0599 24.9607 80.1211 24.6653 80.1738 24.3389L78.1993 24.0205C78.1543 24.2995 78.1081 24.512 78.0639 24.6667L79.9869 25.2161ZM80.1738 24.3389C80.2278 24.0038 80.2743 23.6018 80.3146 23.1384L78.3221 22.9651C78.2843 23.4002 78.2429 23.7501 78.1993 24.0205L80.1738 24.3389ZM80.3146 23.1384C80.3557 22.6657 80.3858 22.1143 80.4057 21.4868L78.4068 21.4233C78.3876 22.0264 78.3591 22.5394 78.3221 22.9651L80.3146 23.1384ZM80.4058 21.4863C80.4257 20.8482 80.4355 20.1098 80.4355 19.2725H78.4355C78.4355 20.0953 78.4259 20.812 78.4067 21.4238L80.4058 21.4863ZM80.4355 19.2725V9.73633H78.4355V19.2725H80.4355ZM80.4355 9.73633C80.4355 8.89904 80.4257 8.16534 80.4057 7.53663L78.4068 7.60009C78.4259 8.20184 78.4355 8.91346 78.4355 9.73633H80.4355ZM80.4058 7.53712C80.3859 6.90012 80.3557 6.34354 80.3146 5.8704L78.3221 6.04366C78.3591 6.46896 78.3876 6.9866 78.4067 7.59959L80.4058 7.53712ZM80.3148 5.87223C80.2745 5.39935 80.228 4.99157 80.1738 4.65522L78.1993 4.97369C78.2427 5.24281 78.2841 5.59675 78.322 6.04183L80.3148 5.87223ZM80.1738 4.65522C80.1211 4.32881 80.0599 4.03349 79.9869 3.77801L78.0639 4.32746C78.1081 4.48214 78.1543 4.69463 78.1993 4.97369L80.1738 4.65522ZM80.0254 4.05273V3.99414H78.0254V4.05273H80.0254ZM79.0254 4.99414H82.5264V2.99414H79.0254V4.99414ZM81.5264 3.99414V4.05273H83.5264V3.99414H81.5264ZM81.5648 3.77801C81.4956 4.02028 81.4307 4.30454 81.3688 4.62443L83.3324 5.00448C83.3876 4.7189 83.4399 4.49534 83.4879 4.32746L81.5648 3.77801ZM81.3633 4.65522C81.3091 4.99157 81.2626 5.39935 81.2224 5.87223L83.2151 6.04183C83.253 5.59675 83.2944 5.24281 83.3378 4.97369L81.3633 4.65522ZM81.2209 5.89195C81.1911 6.34908 81.1614 6.8926 81.132 7.52154L83.1298 7.61518C83.1589 6.99412 83.1878 6.46342 83.2166 6.02211L81.2209 5.89195ZM81.1314 7.53663C81.1114 8.16534 81.1016 8.89904 81.1016 9.73633H83.1016C83.1016 8.91346 83.1113 8.20184 83.1304 7.60009L81.1314 7.53663ZM81.1016 9.73633V19.2725H83.1016V9.73633H81.1016ZM81.1016 19.2725C81.1016 20.1098 81.1114 20.8482 81.1313 21.4863L83.1304 21.4238C83.1112 20.812 83.1016 20.0953 83.1016 19.2725H81.1016ZM81.132 21.5026C81.1615 22.1218 81.1911 22.6601 81.2209 23.1168L83.2166 22.9867C83.1878 22.545 83.1588 22.0189 83.1297 21.4075L81.132 21.5026ZM81.2225 23.1384C81.2628 23.6018 81.3093 24.0038 81.3633 24.3389L83.3378 24.0205C83.2942 23.7501 83.2528 23.4002 83.215 22.9651L81.2225 23.1384ZM81.3688 24.3697C81.4307 24.6896 81.4956 24.9739 81.5648 25.2161L83.4879 24.6667C83.4399 24.4988 83.3876 24.2752 83.3324 23.9897L81.3688 24.3697ZM81.5264 24.9414V25H83.5264V24.9414H81.5264ZM82.5264 24H79.0254V26H82.5264V24ZM80.0254 25V24.9414H78.0254V25H80.0254ZM90.6826 3.99414L91.4113 3.30932L91.1151 2.99414H90.6826V3.99414ZM105.771 20.0488L105.042 20.7337L106.771 22.5731V20.0488H105.771ZM105.741 7.56836L104.742 7.59959L104.742 7.60009L105.741 7.56836ZM105.653 5.95703L104.657 6.04183L104.657 6.04366L105.653 5.95703ZM105.507 4.81445L104.52 4.97369L104.522 4.98912L104.525 5.00448L105.507 4.81445ZM105.346 4.05273H104.346V4.19279L104.384 4.32746L105.346 4.05273ZM105.346 3.99414V2.99414H104.346V3.99414H105.346ZM107.953 3.99414H108.953V2.99414H107.953V3.99414ZM107.953 4.05273L108.915 4.32746L108.953 4.19279V4.05273H107.953ZM107.66 5.95703L108.656 6.04366L108.657 6.04183L107.66 5.95703ZM107.572 7.56836L108.572 7.60009L108.572 7.59959L107.572 7.56836ZM107.543 25.293V26.293H108.543V25.293H107.543ZM107.03 25.293L106.302 25.9781L106.598 26.293H107.03V25.293ZM91.9424 9.25293L92.6708 8.56777L90.9424 6.7303V9.25293H91.9424ZM91.9717 21.4551L90.9722 21.4863L90.9722 21.4868L91.9717 21.4551ZM92.3525 24.9414H93.3525V24.8014L93.3141 24.6667L92.3525 24.9414ZM92.3525 25V26H93.3525V25H92.3525ZM89.7451 25H88.7451V26H89.7451V25ZM89.7451 24.9414L88.7836 24.6667L88.7451 24.8014V24.9414H89.7451ZM89.9062 24.1797L88.9245 23.9897L88.9215 24.005L88.919 24.0205L89.9062 24.1797ZM90.1406 21.4551L91.1401 21.4868L91.1401 21.4863L90.1406 21.4551ZM90.1406 7.56836L89.1411 7.59959L89.1411 7.60009L90.1406 7.56836ZM90.0527 5.95703L89.0563 6.04183L89.0565 6.04366L90.0527 5.95703ZM89.9062 4.81445L88.919 4.97369L88.9215 4.98912L88.9245 5.00448L89.9062 4.81445ZM89.7451 4.05273H88.7451V4.19279L88.7836 4.32746L89.7451 4.05273ZM89.7451 3.99414V2.99414H88.7451V3.99414H89.7451ZM89.9539 4.67897L105.042 20.7337L106.499 19.364L91.4113 3.30932L89.9539 4.67897ZM106.771 20.0488V9.73633H104.771V20.0488H106.771ZM106.771 9.73633C106.771 8.89904 106.761 8.16534 106.741 7.53663L104.742 7.60009C104.761 8.20184 104.771 8.91346 104.771 9.73633H106.771ZM106.741 7.53712C106.721 6.90012 106.691 6.34354 106.65 5.8704L104.657 6.04366C104.694 6.46896 104.723 6.9866 104.742 7.59959L106.741 7.53712ZM106.65 5.87223C106.609 5.39334 106.556 4.9744 106.489 4.62443L104.525 5.00448C104.575 5.25998 104.62 5.60275 104.657 6.04183L106.65 5.87223ZM106.494 4.65522C106.441 4.32881 106.38 4.03349 106.307 3.77801L104.384 4.32746C104.428 4.48214 104.475 4.69463 104.52 4.97369L106.494 4.65522ZM106.346 4.05273V3.99414H104.346V4.05273H106.346ZM105.346 4.99414H107.953V2.99414H105.346V4.99414ZM106.953 3.99414V4.05273H108.953V3.99414H106.953ZM106.992 3.77801C106.919 4.03349 106.857 4.32881 106.805 4.65522L108.779 4.97369C108.824 4.69463 108.87 4.48214 108.915 4.32746L106.992 3.77801ZM106.805 4.65522C106.751 4.99157 106.704 5.39935 106.664 5.87223L108.657 6.04183C108.694 5.59675 108.736 5.24281 108.779 4.97369L106.805 4.65522ZM106.664 5.8704C106.623 6.34354 106.593 6.90012 106.573 7.53712L108.572 7.59959C108.591 6.9866 108.619 6.46896 108.656 6.04366L106.664 5.8704ZM106.573 7.53663C106.553 8.16534 106.543 8.89904 106.543 9.73633H108.543C108.543 8.91346 108.553 8.20184 108.572 7.60009L106.573 7.53663ZM106.543 9.73633V25.293H108.543V9.73633H106.543ZM107.543 24.293H107.03V26.293H107.543V24.293ZM107.759 24.6078L92.6708 8.56777L91.214 9.93809L106.302 25.9781L107.759 24.6078ZM90.9424 9.25293V19.2725H92.9424V9.25293H90.9424ZM90.9424 19.2725C90.9424 20.1098 90.9522 20.8482 90.9722 21.4863L92.9712 21.4238C92.9521 20.812 92.9424 20.0953 92.9424 19.2725H90.9424ZM90.9722 21.4868C90.9921 22.1143 91.0222 22.6657 91.0633 23.1384L93.0558 22.9651C93.0188 22.5394 92.9903 22.0264 92.9712 21.4233L90.9722 21.4868ZM91.0633 23.1384C91.1036 23.6018 91.1501 24.0038 91.2042 24.3389L93.1786 24.0205C93.135 23.7501 93.0936 23.4002 93.0558 22.9651L91.0633 23.1384ZM91.2042 24.3389C91.2568 24.6653 91.318 24.9607 91.391 25.2161L93.3141 24.6667C93.2699 24.512 93.2237 24.2995 93.1786 24.0205L91.2042 24.3389ZM91.3525 24.9414V25H93.3525V24.9414H91.3525ZM92.3525 24H89.7451V26H92.3525V24ZM90.7451 25V24.9414H88.7451V25H90.7451ZM90.7066 25.2161C90.7796 24.9607 90.8408 24.6653 90.8935 24.3389L88.919 24.0205C88.874 24.2995 88.8278 24.512 88.7836 24.6667L90.7066 25.2161ZM90.888 24.3697C90.9555 24.0211 91.0081 23.608 91.049 23.1384L89.0565 22.9651C89.0192 23.3939 88.9742 23.7328 88.9245 23.9897L90.888 24.3697ZM91.049 23.1384C91.0901 22.6657 91.1202 22.1143 91.1401 21.4868L89.1411 21.4233C89.122 22.0264 89.0935 22.5394 89.0565 22.9651L91.049 23.1384ZM91.1401 21.4863C91.1601 20.8482 91.1699 20.1098 91.1699 19.2725H89.1699C89.1699 20.0953 89.1602 20.812 89.1411 21.4238L91.1401 21.4863ZM91.1699 19.2725V9.73633H89.1699V19.2725H91.1699ZM91.1699 9.73633C91.1699 8.89904 91.1601 8.16534 91.1401 7.53663L89.1411 7.60009C89.1602 8.20184 89.1699 8.91346 89.1699 9.73633H91.1699ZM91.1401 7.53712C91.1202 6.90012 91.0901 6.34354 91.049 5.8704L89.0565 6.04366C89.0935 6.46896 89.122 6.9866 89.1411 7.59959L91.1401 7.53712ZM91.0491 5.87223C91.0084 5.39334 90.9558 4.9744 90.888 4.62443L88.9245 5.00448C88.9739 5.25998 89.019 5.60275 89.0563 6.04183L91.0491 5.87223ZM90.8935 4.65522C90.8408 4.32881 90.7796 4.03349 90.7066 3.77801L88.7836 4.32746C88.8278 4.48214 88.874 4.69463 88.919 4.97369L90.8935 4.65522ZM90.7451 4.05273V3.99414H88.7451V4.05273H90.7451ZM89.7451 4.99414H90.6826V2.99414H89.7451V4.99414ZM115.04 3.99414V2.99414H114.04V3.99414H115.04ZM118.673 3.97949L118.665 2.97952L118.665 2.97953L118.673 3.97949ZM121.998 3.9502L122.008 4.9502L122.017 4.95001L121.998 3.9502ZM126.026 3.75977L126.965 4.10547L127.577 2.44322L125.838 2.77776L126.026 3.75977ZM125.309 5.70801L125.045 6.67277L125.93 6.914L126.247 6.05371L125.309 5.70801ZM124.181 5.47363L124.338 4.48605L124.337 4.48587L124.181 5.47363ZM122.818 5.3125L122.708 6.30638L122.718 6.30749L122.728 6.30839L122.818 5.3125ZM120.138 5.25391L120.168 6.25345L120.182 6.25302L120.196 6.25218L120.138 5.25391ZM119.2 5.29785L119.256 6.29635L119.265 6.29578L119.2 5.29785ZM118.131 5.35645L118.077 4.3579L117.131 4.40904V5.35645H118.131ZM118.131 13.3545H117.131V14.3642L118.141 14.3544L118.131 13.3545ZM122.921 13.1201L123.007 14.1164L123.009 14.1162L122.921 13.1201ZM124.679 12.915L125.657 13.1241L125.96 11.7062L124.527 11.9267L124.679 12.915ZM124.225 15.0391L124.095 16.0307L125.01 16.1499L125.203 15.2481L124.225 15.0391ZM122.159 14.79L122.047 15.7837L122.049 15.7839L122.159 14.79ZM120.182 14.6143L120.1 15.611L120.113 15.6119L120.182 14.6143ZM118.131 14.5264V13.5264H117.131V14.5264H118.131ZM118.131 23.7109H117.131V24.7109H118.131V23.7109ZM123.844 23.2275L123.683 22.2405L123.671 22.2426L123.844 23.2275ZM126.144 22.7441L127.128 22.9204L127.405 21.3713L125.885 21.7781L126.144 22.7441ZM125.719 25.1172L125.636 26.1137L126.543 26.1893L126.703 25.2934L125.719 25.1172ZM124.4 25.0586L124.366 26.058L124.367 26.058L124.4 25.0586ZM123.492 25.0293L123.522 24.0298L123.507 24.0293H123.492V25.0293ZM122.599 25.0146L122.633 24.0152L122.616 24.0146H122.599V25.0146ZM121.837 25L121.88 24.0009L121.859 24H121.837V25ZM115.04 25H114.04V26H115.04V25ZM115.04 24.9414L114.079 24.6667L114.04 24.8014V24.9414H115.04ZM115.201 24.1797L114.219 23.9897L114.216 24.005L114.214 24.0205L115.201 24.1797ZM115.436 21.4551L116.435 21.4868L116.435 21.4863L115.436 21.4551ZM115.436 7.56836L114.436 7.59959L114.436 7.60009L115.436 7.56836ZM115.348 5.95703L114.351 6.04183L114.351 6.04366L115.348 5.95703ZM115.201 4.81445L114.214 4.97369L114.216 4.98912L114.219 5.00448L115.201 4.81445ZM115.04 4.05273H114.04V4.19279L114.079 4.32746L115.04 4.05273ZM115.04 4.99414C116.263 4.99414 117.477 4.98925 118.681 4.97946L118.665 2.97953C117.466 2.98927 116.258 2.99414 115.04 2.99414V4.99414ZM118.681 4.97946C119.892 4.96969 121.001 4.95992 122.008 4.95015L121.988 2.95024C120.983 2.96 119.875 2.96976 118.665 2.97952L118.681 4.97946ZM122.017 4.95001C123.028 4.93039 123.895 4.9058 124.617 4.87611L124.535 2.8778C123.832 2.9067 122.98 2.93094 121.979 2.95038L122.017 4.95001ZM124.617 4.87611C125.322 4.84714 125.877 4.80673 126.215 4.74177L125.838 2.77776C125.667 2.81046 125.256 2.84818 124.535 2.8778L124.617 4.87611ZM125.088 3.41406L124.37 5.3623L126.247 6.05371L126.965 4.10547L125.088 3.41406ZM125.572 4.74324C125.206 4.64349 124.793 4.5585 124.338 4.48605L124.024 6.46121C124.428 6.52548 124.767 6.59674 125.045 6.67277L125.572 4.74324ZM124.337 4.48587C123.937 4.42273 123.459 4.36665 122.909 4.31661L122.728 6.30839C123.252 6.35601 123.682 6.40735 124.025 6.4614L124.337 4.48587ZM122.929 4.31862C122.356 4.25493 121.707 4.22461 120.987 4.22461V6.22461C121.654 6.22461 122.226 6.25288 122.708 6.30638L122.929 4.31862ZM120.987 4.22461C120.727 4.22461 120.423 4.23538 120.079 4.25563L120.196 6.25218C120.516 6.23337 120.779 6.22461 120.987 6.22461V4.22461ZM120.107 4.25436C119.774 4.26445 119.451 4.27962 119.136 4.29993L119.265 6.29578C119.555 6.27702 119.856 6.26289 120.168 6.25345L120.107 4.25436ZM119.145 4.29939C118.794 4.31889 118.438 4.3384 118.077 4.3579L118.185 6.35499C118.547 6.33543 118.904 6.31587 119.256 6.29631L119.145 4.29939ZM117.131 5.35645V13.3545H119.131V5.35645H117.131ZM118.141 14.3544C119.159 14.3446 120.085 14.3148 120.916 14.2648L120.795 12.2684C120.005 12.316 119.114 12.3449 118.121 12.3545L118.141 14.3544ZM120.916 14.2648C121.731 14.2156 122.429 14.1662 123.007 14.1164L122.835 12.1238C122.28 12.1717 121.601 12.2199 120.795 12.2684L120.916 14.2648ZM123.009 14.1162C123.688 14.0563 124.296 13.9856 124.831 13.9034L124.527 11.9267C124.045 12.0007 123.482 12.0668 122.833 12.124L123.009 14.1162ZM123.701 12.706L123.247 14.83L125.203 15.2481L125.657 13.1241L123.701 12.706ZM124.354 14.0475C123.674 13.9587 122.979 13.875 122.27 13.7962L122.049 15.7839C122.746 15.8614 123.428 15.9436 124.095 16.0307L124.354 14.0475ZM122.271 13.7964C121.649 13.7261 120.975 13.6663 120.25 13.6166L120.113 15.6119C120.814 15.6599 121.458 15.7173 122.047 15.7837L122.271 13.7964ZM120.264 13.6176C119.526 13.557 118.815 13.5264 118.131 13.5264V15.5264C118.755 15.5264 119.412 15.5543 120.1 15.6109L120.264 13.6176ZM117.131 14.5264V23.7109H119.131V14.5264H117.131ZM118.131 24.7109C119.311 24.7109 120.404 24.661 121.41 24.5594L121.209 22.5695C120.281 22.6632 119.256 22.7109 118.131 22.7109V24.7109ZM121.41 24.5594C122.394 24.46 123.264 24.3447 124.017 24.2125L123.671 22.2426C122.978 22.3643 122.159 22.4736 121.209 22.5695L121.41 24.5594ZM124.004 24.2145C124.871 24.0734 125.671 23.9057 126.402 23.7101L125.885 21.7781C125.229 21.9536 124.496 22.1082 123.683 22.2405L124.004 24.2145ZM125.159 22.5679L124.734 24.941L126.703 25.2934L127.128 22.9204L125.159 22.5679ZM125.802 24.1206C125.663 24.1091 125.471 24.0987 125.233 24.0888L125.15 26.087C125.381 26.0967 125.54 26.1058 125.636 26.1137L125.802 24.1206ZM125.233 24.0888C124.995 24.0789 124.729 24.069 124.434 24.0591L124.367 26.058C124.658 26.0677 124.919 26.0774 125.15 26.087L125.233 24.0888ZM124.435 24.0592C124.15 24.0494 123.846 24.0396 123.522 24.0298L123.462 26.0288C123.783 26.0386 124.084 26.0483 124.366 26.058L124.435 24.0592ZM123.492 24.0293C123.19 24.0293 122.904 24.0246 122.633 24.0152L122.564 26.0141C122.86 26.0243 123.169 26.0293 123.492 26.0293V24.0293ZM122.599 24.0146C122.326 24.0146 122.087 24.0099 121.88 24.0009L121.793 25.9991C122.036 26.0096 122.304 26.0146 122.599 26.0146V24.0146ZM121.837 24C121.836 24 121.836 24 121.836 24C121.835 24 121.835 24 121.834 24C121.834 24 121.834 24 121.833 24C121.833 24 121.832 24 121.832 24C121.831 24 121.831 24 121.831 24C121.83 24 121.83 24 121.829 24C121.829 24 121.829 24 121.828 24C121.828 24 121.827 24 121.827 24C121.826 24 121.826 24 121.826 24C121.825 24 121.825 24 121.824 24C121.824 24 121.824 24 121.823 24C121.823 24 121.822 24 121.822 24C121.821 24 121.821 24 121.821 24C121.82 24 121.82 24 121.819 24C121.819 24 121.819 24 121.818 24C121.818 24 121.817 24 121.817 24C121.817 24 121.816 24 121.816 24C121.815 24 121.815 24 121.814 24C121.814 24 121.814 24 121.813 24C121.813 24 121.812 24 121.812 24C121.812 24 121.811 24 121.811 24C121.81 24 121.81 24 121.81 24C121.809 24 121.809 24 121.808 24C121.808 24 121.807 24 121.807 24C121.807 24 121.806 24 121.806 24C121.805 24 121.805 24 121.805 24C121.804 24 121.804 24 121.803 24C121.803 24 121.803 24 121.802 24C121.802 24 121.801 24 121.801 24C121.801 24 121.8 24 121.8 24C121.799 24 121.799 24 121.799 24C121.798 24 121.798 24 121.797 24C121.797 24 121.797 24 121.796 24C121.796 24 121.795 24 121.795 24C121.794 24 121.794 24 121.794 24C121.793 24 121.793 24 121.792 24C121.792 24 121.792 24 121.791 24C121.791 24 121.79 24 121.79 24C121.79 24 121.789 24 121.789 24C121.788 24 121.788 24 121.788 24C121.787 24 121.787 24 121.786 24C121.786 24 121.786 24 121.785 24C121.785 24 121.784 24 121.784 24C121.784 24 121.783 24 121.783 24C121.782 24 121.782 24 121.782 24C121.781 24 121.781 24 121.78 24C121.78 24 121.78 24 121.779 24C121.779 24 121.778 24 121.778 24C121.778 24 121.777 24 121.777 24C121.776 24 121.776 24 121.776 24C121.775 24 121.775 24 121.774 24C121.774 24 121.774 24 121.773 24C121.773 24 121.772 24 121.772 24C121.772 24 121.771 24 121.771 24C121.77 24 121.77 24 121.77 24C121.769 24 121.769 24 121.769 24C121.768 24 121.768 24 121.767 24C121.767 24 121.767 24 121.766 24C121.766 24 121.765 24 121.765 24C121.765 24 121.764 24 121.764 24C121.763 24 121.763 24 121.763 24C121.762 24 121.762 24 121.761 24C121.761 24 121.761 24 121.76 24C121.76 24 121.759 24 121.759 24C121.759 24 121.758 24 121.758 24C121.758 24 121.757 24 121.757 24C121.756 24 121.756 24 121.756 24C121.755 24 121.755 24 121.754 24C121.754 24 121.754 24 121.753 24C121.753 24 121.752 24 121.752 24C121.752 24 121.751 24 121.751 24C121.751 24 121.75 24 121.75 24C121.749 24 121.749 24 121.749 24C121.748 24 121.748 24 121.747 24C121.747 24 121.747 24 121.746 24C121.746 24 121.745 24 121.745 24C121.745 24 121.744 24 121.744 24C121.744 24 121.743 24 121.743 24C121.742 24 121.742 24 121.742 24C121.741 24 121.741 24 121.74 24C121.74 24 121.74 24 121.739 24C121.739 24 121.739 24 121.738 24C121.738 24 121.737 24 121.737 24C121.737 24 121.736 24 121.736 24C121.736 24 121.735 24 121.735 24C121.734 24 121.734 24 121.734 24C121.733 24 121.733 24 121.732 24C121.732 24 121.732 24 121.731 24C121.731 24 121.731 24 121.73 24C121.73 24 121.729 24 121.729 24C121.729 24 121.728 24 121.728 24C121.728 24 121.727 24 121.727 24C121.726 24 121.726 24 121.726 24C121.725 24 121.725 24 121.725 24C121.724 24 121.724 24 121.723 24C121.723 24 121.723 24 121.722 24C121.722 24 121.721 24 121.721 24C121.721 24 121.72 24 121.72 24C121.72 24 121.719 24 121.719 24C121.718 24 121.718 24 121.718 24C121.717 24 121.717 24 121.717 24C121.716 24 121.716 24 121.715 24C121.715 24 121.715 24 121.714 24C121.714 24 121.714 24 121.713 24C121.713 24 121.713 24 121.712 24C121.712 24 121.711 24 121.711 24C121.711 24 121.71 24 121.71 24C121.71 24 121.709 24 121.709 24C121.708 24 121.708 24 121.708 24C121.707 24 121.707 24 121.707 24C121.706 24 121.706 24 121.705 24C121.705 24 121.705 24 121.704 24C121.704 24 121.704 24 121.703 24C121.703 24 121.702 24 121.702 24C121.702 24 121.701 24 121.701 24C121.701 24 121.7 24 121.7 24C121.7 24 121.699 24 121.699 24C121.698 24 121.698 24 121.698 24C121.697 24 121.697 24 121.697 24C121.696 24 121.696 24 121.696 24C121.695 24 121.695 24 121.694 24C121.694 24 121.694 24 121.693 24C121.693 24 121.693 24 121.692 24C121.692 24 121.691 24 121.691 24C121.691 24 121.69 24 121.69 24C121.69 24 121.689 24 121.689 24C121.689 24 121.688 24 121.688 24C121.687 24 121.687 24 121.687 24C121.686 24 121.686 24 121.686 24C121.685 24 121.685 24 121.685 24C121.684 24 121.684 24 121.684 24C121.683 24 121.683 24 121.682 24C121.682 24 121.682 24 121.681 24C121.681 24 121.681 24 121.68 24C121.68 24 121.68 24 121.679 24C121.679 24 121.678 24 121.678 24C121.678 24 121.677 24 121.677 24C121.677 24 121.676 24 121.676 24C121.676 24 121.675 24 121.675 24C121.675 24 121.674 24 121.674 24C121.673 24 121.673 24 121.673 24C121.672 24 121.672 24 121.672 24C121.671 24 121.671 24 121.671 24C121.67 24 121.67 24 121.67 24C121.669 24 121.669 24 121.668 24C121.668 24 121.668 24 121.667 24C121.667 24 121.667 24 121.666 24C121.666 24 121.666 24 121.665 24C121.665 24 121.665 24 121.664 24C121.664 24 121.664 24 121.663 24C121.663 24 121.662 24 121.662 24C121.662 24 121.661 24 121.661 24C121.661 24 121.66 24 121.66 24C121.66 24 121.659 24 121.659 24C121.659 24 121.658 24 121.658 24C121.658 24 121.657 24 121.657 24C121.657 24 121.656 24 121.656 24C121.655 24 121.655 24 121.655 24C121.654 24 121.654 24 121.654 24C121.653 24 121.653 24 121.653 24C121.652 24 121.652 24 121.652 24C121.651 24 121.651 24 121.651 24C121.65 24 121.65 24 121.65 24C121.649 24 121.649 24 121.648 24C121.648 24 121.648 24 121.647 24C121.647 24 121.647 24 121.646 24C121.646 24 121.646 24 121.645 24C121.645 24 121.645 24 121.644 24C121.644 24 121.644 24 121.643 24C121.643 24 121.643 24 121.642 24C121.642 24 121.642 24 121.641 24C121.641 24 121.641 24 121.64 24C121.64 24 121.64 24 121.639 24C121.639 24 121.639 24 121.638 24C121.638 24 121.637 24 121.637 24C121.637 24 121.636 24 121.636 24C121.636 24 121.635 24 121.635 24C121.635 24 121.634 24 121.634 24C121.634 24 121.633 24 121.633 24C121.633 24 121.632 24 121.632 24C121.632 24 121.631 24 121.631 24C121.631 24 121.63 24 121.63 24C121.63 24 121.629 24 121.629 24C121.629 24 121.628 24 121.628 24C121.628 24 121.627 24 121.627 24C121.627 24 121.626 24 121.626 24C121.626 24 121.625 24 121.625 24C121.625 24 121.624 24 121.624 24C121.624 24 121.623 24 121.623 24C121.623 24 121.622 24 121.622 24C121.622 24 121.621 24 121.621 24C121.621 24 121.62 24 121.62 24C121.62 24 121.619 24 121.619 24C121.619 24 121.618 24 121.618 24C121.618 24 121.617 24 121.617 24C121.617 24 121.616 24 121.616 24C121.616 24 121.615 24 121.615 24C121.615 24 121.614 24 121.614 24C121.614 24 121.613 24 121.613 24C121.613 24 121.612 24 121.612 24C121.612 24 121.611 24 121.611 24C121.611 24 121.61 24 121.61 24C121.61 24 121.609 24 121.609 24C121.609 24 121.608 24 121.608 24C121.608 24 121.607 24 121.607 24C121.607 24 121.606 24 121.606 24C121.606 24 121.605 24 121.605 24C121.605 24 121.604 24 121.604 24C121.604 24 121.603 24 121.603 24C121.603 24 121.602 24 121.602 24C121.602 24 121.601 24 121.601 24C121.601 24 121.6 24 121.6 24C121.6 24 121.6 24 121.599 24C121.599 24 121.599 24 121.598 24C121.598 24 121.598 24 121.597 24C121.597 24 121.597 24 121.596 24C121.596 24 121.596 24 121.595 24C121.595 24 121.595 24 121.594 24C121.594 24 121.594 24 121.593 24C121.593 24 121.593 24 121.592 24C121.592 24 121.592 24 121.591 24C121.591 24 121.591 24 121.59 24C121.59 24 121.59 24 121.59 24C121.589 24 121.589 24 121.589 24C121.588 24 121.588 24 121.588 24C121.587 24 121.587 24 121.587 24C121.586 24 121.586 24 121.586 24C121.585 24 121.585 24 121.585 24C121.584 24 121.584 24 121.584 24C121.583 24 121.583 24 121.583 24C121.583 24 121.582 24 121.582 24C121.582 24 121.581 24 121.581 24C121.581 24 121.58 24 121.58 24C121.58 24 121.579 24 121.579 24C121.579 24 121.578 24 121.578 24C121.578 24 121.577 24 121.577 24C121.577 24 121.577 24 121.576 24C121.576 24 121.576 24 121.575 24C121.575 24 121.575 24 121.574 24C121.574 24 121.574 24 121.573 24C121.573 24 121.573 24 121.572 24C121.572 24 121.572 24 121.572 24C121.571 24 121.571 24 121.571 24C121.57 24 121.57 24 121.57 24C121.569 24 121.569 24 121.569 24C121.568 24 121.568 24 121.568 24C121.568 24 121.567 24 121.567 24C121.567 24 121.566 24 121.566 24C121.566 24 121.565 24 121.565 24C121.565 24 121.564 24 121.564 24C121.564 24 121.563 24 121.563 24C121.563 24 121.563 24 121.562 24C121.562 24 121.562 24 121.561 24C121.561 24 121.561 24 121.56 24C121.56 24 121.56 24 121.56 24C121.559 24 121.559 24 121.559 24C121.558 24 121.558 24 121.558 24C121.557 24 121.557 24 121.557 24C121.556 24 121.556 24 121.556 24C121.556 24 121.555 24 121.555 24C121.555 24 121.554 24 121.554 24C121.554 24 121.553 24 121.553 24C121.553 24 121.553 24 121.552 24C121.552 24 121.552 24 121.551 24C121.551 24 121.551 24 121.55 24C121.55 24 121.55 24 121.55 24C121.549 24 121.549 24 121.549 24C121.548 24 121.548 24 121.548 24C121.547 24 121.547 24 121.547 24C121.547 24 121.546 24 121.546 24C121.546 24 121.545 24 121.545 24C121.545 24 121.544 24 121.544 24C121.544 24 121.544 24 121.543 24C121.543 24 121.543 24 121.542 24C121.542 24 121.542 24 121.541 24C121.541 24 121.541 24 121.541 24C121.54 24 121.54 24 121.54 24C121.539 24 121.539 24 121.539 24C121.538 24 121.538 24 121.538 24C121.538 24 121.537 24 121.537 24C121.537 24 121.536 24 121.536 24C121.536 24 121.536 24 121.535 24C121.535 24 121.535 24 121.534 24C121.534 24 121.534 24 121.533 24C121.533 24 121.533 24 121.533 24C121.532 24 121.532 24 121.532 24C121.531 24 121.531 24 121.531 24C121.531 24 121.53 24 121.53 24C121.53 24 121.529 24 121.529 24C121.529 24 121.529 24 121.528 24C121.528 24 121.528 24 121.527 24C121.527 24 121.527 24 121.527 24C121.526 24 121.526 24 121.526 24C121.525 24 121.525 24 121.525 24C121.524 24 121.524 24 121.524 24C121.524 24 121.523 24 121.523 24C121.523 24 121.522 24 121.522 24C121.522 24 121.522 24 121.521 24C121.521 24 121.521 24 121.52 24C121.52 24 121.52 24 121.52 24C121.519 24 121.519 24 121.519 24C121.518 24 121.518 24 121.518 24C121.518 24 121.517 24 121.517 24C121.517 24 121.516 24 121.516 24C121.516 24 121.516 24 121.515 24C121.515 24 121.515 24 121.514 24C121.514 24 121.514 24 121.514 24C121.513 24 121.513 24 121.513 24C121.513 24 121.512 24 121.512 24C121.512 24 121.511 24 121.511 24C121.511 24 121.511 24 121.51 24C121.51 24 121.51 24 121.509 24C121.509 24 121.509 24 121.509 24C121.508 24 121.508 24 121.508 24C121.507 24 121.507 24 121.507 24C121.507 24 121.506 24 121.506 24C121.506 24 121.506 24 121.505 24C121.505 24 121.505 24 121.504 24C121.504 24 121.504 24 121.504 24C121.503 24 121.503 24 121.503 24C121.502 24 121.502 24 121.502 24C121.502 24 121.501 24 121.501 24C121.501 24 121.501 24 121.5 24C121.5 24 121.5 24 121.499 24C121.499 24 121.499 24 121.499 24C121.498 24 121.498 24 121.498 24C121.498 24 121.497 24 121.497 24C121.497 24 121.496 24 121.496 24C121.496 24 121.496 24 121.495 24C121.495 24 121.495 24 121.495 24C121.494 24 121.494 24 121.494 24C121.493 24 121.493 24 121.493 24C121.493 24 121.492 24 121.492 24C121.492 24 121.492 24 121.491 24C121.491 24 121.491 24 121.49 24C121.49 24 121.49 24 121.49 24C121.489 24 121.489 24 121.489 24C121.489 24 121.488 24 121.488 24C121.488 24 121.487 24 121.487 24C121.487 24 121.487 24 121.486 24C121.486 24 121.486 24 121.486 24C121.485 24 121.485 24 121.485 24C121.485 24 121.484 24 121.484 24C121.484 24 121.483 24 121.483 24C121.483 24 121.483 24 121.482 24C121.482 24 121.482 24 121.482 24C121.481 24 121.481 24 121.481 24C121.481 24 121.48 24 121.48 24C121.48 24 121.48 24 121.479 24C121.479 24 121.479 24 121.478 24C121.478 24 121.478 24 121.478 24C121.477 24 121.477 24 121.477 24C121.477 24 121.476 24 121.476 24C121.476 24 121.476 24 121.475 24C121.475 24 121.475 24 121.475 24C121.474 24 121.474 24 121.474 24C121.473 24 121.473 24 121.473 24C121.473 24 121.472 24 121.472 24C121.472 24 121.472 24 121.471 24C121.471 24 121.471 24 121.471 24C121.47 24 121.47 24 121.47 24C121.47 24 121.469 24 121.469 24C121.469 24 121.469 24 121.468 24C121.468 24 121.468 24 121.468 24C121.467 24 121.467 24 121.467 24C121.467 24 121.466 24 121.466 24C121.466 24 121.465 24 121.465 24C121.465 24 121.465 24 121.464 24C121.464 24 121.464 24 121.464 24C121.463 24 121.463 24 121.463 24C121.463 24 121.462 24 121.462 24C121.462 24 121.462 24 121.461 24C121.461 24 121.461 24 121.461 24C121.46 24 121.46 24 121.46 24C121.46 24 121.459 24 121.459 24C121.459 24 121.459 24 121.458 24C121.458 24 121.458 24 121.458 24C121.457 24 121.457 24 121.457 24C121.457 24 121.456 24 121.456 24C121.456 24 121.456 24 121.455 24C121.455 24 121.455 24 121.455 24C121.454 24 121.454 24 121.454 24C121.454 24 121.453 24 121.453 24C121.453 24 121.453 24 121.452 24C121.452 24 121.452 24 121.452 24C121.451 24 121.451 24 121.451 24C121.451 24 121.45 24 121.45 24C121.45 24 121.45 24 121.449 24C121.449 24 121.449 24 121.449 24C121.448 24 121.448 24 121.448 24C121.448 24 121.447 24 121.447 24C121.447 24 121.447 24 121.446 24C121.446 24 121.446 24 121.446 24C121.446 24 121.445 24 121.445 24C121.445 24 121.445 24 121.444 24C121.444 24 121.444 24 121.444 24C121.443 24 121.443 24 121.443 24C121.443 24 121.442 24 121.442 24C121.442 24 121.442 24 121.441 24C121.441 24 121.441 24 121.441 24C121.44 24 121.44 24 121.44 24C121.44 24 121.439 24 121.439 24C121.439 24 121.439 24 121.438 24C121.438 24 121.438 24 121.438 24C121.438 24 121.437 24 121.437 24C121.437 24 121.437 24 121.436 24C121.436 24 121.436 24 121.436 24C121.435 24 121.435 24 121.435 24C121.435 24 121.434 24 121.434 24C121.434 24 121.434 24 121.434 24C121.433 24 121.433 24 121.433 24C121.433 24 121.432 24 121.432 24C121.432 24 121.432 24 121.431 24C121.431 24 121.431 24 121.431 24C121.43 24 121.43 24 121.43 24C121.43 24 121.43 24 121.429 24C121.429 24 121.429 24 121.429 24C121.428 24 121.428 24 121.428 24C121.428 24 121.427 24 121.427 24C121.427 24 121.427 24 121.426 24C121.426 24 121.426 24 121.426 24C121.426 24 121.425 24 121.425 24C121.425 24 121.425 24 121.424 24C121.424 24 121.424 24 121.424 24C121.423 24 121.423 24 121.423 24C121.423 24 121.423 24 121.422 24C121.422 24 121.422 24 121.422 24C121.421 24 121.421 24 121.421 24C121.421 24 121.421 24 121.42 24C121.42 24 121.42 24 121.42 24C121.419 24 121.419 24 121.419 24C121.419 24 121.418 24 121.418 24C121.418 24 121.418 24 121.418 24C121.417 24 121.417 24 121.417 24C121.417 24 121.416 24 121.416 24C121.416 24 121.416 24 121.416 24C121.415 24 121.415 24 121.415 24C121.415 24 121.414 24 121.414 24C121.414 24 121.414 24 121.414 24C121.413 24 121.413 24 121.413 24C121.413 24 121.412 24 121.412 24C121.412 24 121.412 24 121.412 24C121.411 24 121.411 24 121.411 24C121.411 24 121.41 24 121.41 24C121.41 24 121.41 24 121.41 24C121.409 24 121.409 24 121.409 24C121.409 24 121.408 24 121.408 24C121.408 24 121.408 24 121.408 24C121.407 24 121.407 24 121.407 24C121.407 24 121.406 24 121.406 24C121.406 24 121.406 24 121.406 24C121.405 24 121.405 24 121.405 24C121.405 24 121.404 24 121.404 24C121.404 24 121.404 24 121.404 24C121.403 24 121.403 24 121.403 24C121.403 24 121.403 24 121.402 24C121.402 24 121.402 24 121.402 24C121.401 24 121.401 24 121.401 24C121.401 24 121.401 24 121.4 24C121.4 24 121.4 24 121.4 24C121.4 24 121.399 24 121.399 24C121.399 24 121.399 24 121.398 24C121.398 24 121.398 24 121.398 24C121.398 24 121.397 24 121.397 24C121.397 24 121.397 24 121.397 24C121.396 24 121.396 24 121.396 24C121.396 24 121.395 24 121.395 24C121.395 24 121.395 24 121.395 24C121.394 24 121.394 24 121.394 24C121.394 24 121.394 24 121.393 24C121.393 24 121.393 24 121.393 24C121.393 24 121.392 24 121.392 24C121.392 24 121.392 24 121.391 24C121.391 24 121.391 24 121.391 24C121.391 24 121.39 24 121.39 24C121.39 24 121.39 24 121.39 24C121.389 24 121.389 24 121.389 24C121.389 24 121.389 24 121.388 24C121.388 24 121.388 24 121.388 24C121.388 24 121.387 24 121.387 24C121.387 24 121.387 24 121.387 24C121.386 24 121.386 24 121.386 24C121.386 24 121.386 24 121.385 24C121.385 24 121.385 24 121.385 24C121.385 24 121.384 24 121.384 24C121.384 24 121.384 24 121.383 24C121.383 24 121.383 24 121.383 24C121.383 24 121.382 24 121.382 24C121.382 24 121.382 24 121.382 24C121.381 24 121.381 24 121.381 24C121.381 24 121.381 24 121.38 24C121.38 24 121.38 24 121.38 24C121.38 24 121.379 24 121.379 24C121.379 24 121.379 24 121.379 24C121.378 24 121.378 24 121.378 24C121.378 24 121.378 24 121.377 24C121.377 24 121.377 24 121.377 24C121.377 24 121.377 24 121.376 24C121.376 24 121.376 24 121.376 24C121.376 24 121.375 24 121.375 24C121.375 24 121.375 24 121.375 24C121.374 24 121.374 24 121.374 24C121.374 24 121.374 24 121.373 24C121.373 24 121.373 24 121.373 24C121.373 24 121.372 24 121.372 24C121.372 24 121.372 24 121.372 24C121.371 24 121.371 24 121.371 24C121.371 24 121.371 24 121.37 24C121.37 24 121.37 24 121.37 24C121.37 24 121.37 24 121.369 24C121.369 24 121.369 24 121.369 24C121.369 24 121.368 24 121.368 24V26C121.368 26 121.369 26 121.369 26C121.369 26 121.369 26 121.369 26C121.37 26 121.37 26 121.37 26C121.37 26 121.37 26 121.37 26C121.371 26 121.371 26 121.371 26C121.371 26 121.371 26 121.372 26C121.372 26 121.372 26 121.372 26C121.372 26 121.373 26 121.373 26C121.373 26 121.373 26 121.373 26C121.374 26 121.374 26 121.374 26C121.374 26 121.374 26 121.375 26C121.375 26 121.375 26 121.375 26C121.375 26 121.376 26 121.376 26C121.376 26 121.376 26 121.376 26C121.377 26 121.377 26 121.377 26C121.377 26 121.377 26 121.377 26C121.378 26 121.378 26 121.378 26C121.378 26 121.378 26 121.379 26C121.379 26 121.379 26 121.379 26C121.379 26 121.38 26 121.38 26C121.38 26 121.38 26 121.38 26C121.381 26 121.381 26 121.381 26C121.381 26 121.381 26 121.382 26C121.382 26 121.382 26 121.382 26C121.382 26 121.383 26 121.383 26C121.383 26 121.383 26 121.383 26C121.384 26 121.384 26 121.384 26C121.384 26 121.385 26 121.385 26C121.385 26 121.385 26 121.385 26C121.386 26 121.386 26 121.386 26C121.386 26 121.386 26 121.387 26C121.387 26 121.387 26 121.387 26C121.387 26 121.388 26 121.388 26C121.388 26 121.388 26 121.388 26C121.389 26 121.389 26 121.389 26C121.389 26 121.389 26 121.39 26C121.39 26 121.39 26 121.39 26C121.39 26 121.391 26 121.391 26C121.391 26 121.391 26 121.391 26C121.392 26 121.392 26 121.392 26C121.392 26 121.393 26 121.393 26C121.393 26 121.393 26 121.393 26C121.394 26 121.394 26 121.394 26C121.394 26 121.394 26 121.395 26C121.395 26 121.395 26 121.395 26C121.395 26 121.396 26 121.396 26C121.396 26 121.396 26 121.397 26C121.397 26 121.397 26 121.397 26C121.397 26 121.398 26 121.398 26C121.398 26 121.398 26 121.398 26C121.399 26 121.399 26 121.399 26C121.399 26 121.4 26 121.4 26C121.4 26 121.4 26 121.4 26C121.401 26 121.401 26 121.401 26C121.401 26 121.401 26 121.402 26C121.402 26 121.402 26 121.402 26C121.403 26 121.403 26 121.403 26C121.403 26 121.403 26 121.404 26C121.404 26 121.404 26 121.404 26C121.404 26 121.405 26 121.405 26C121.405 26 121.405 26 121.406 26C121.406 26 121.406 26 121.406 26C121.406 26 121.407 26 121.407 26C121.407 26 121.407 26 121.408 26C121.408 26 121.408 26 121.408 26C121.408 26 121.409 26 121.409 26C121.409 26 121.409 26 121.41 26C121.41 26 121.41 26 121.41 26C121.41 26 121.411 26 121.411 26C121.411 26 121.411 26 121.412 26C121.412 26 121.412 26 121.412 26C121.412 26 121.413 26 121.413 26C121.413 26 121.413 26 121.414 26C121.414 26 121.414 26 121.414 26C121.414 26 121.415 26 121.415 26C121.415 26 121.415 26 121.416 26C121.416 26 121.416 26 121.416 26C121.416 26 121.417 26 121.417 26C121.417 26 121.417 26 121.418 26C121.418 26 121.418 26 121.418 26C121.418 26 121.419 26 121.419 26C121.419 26 121.419 26 121.42 26C121.42 26 121.42 26 121.42 26C121.421 26 121.421 26 121.421 26C121.421 26 121.421 26 121.422 26C121.422 26 121.422 26 121.422 26C121.423 26 121.423 26 121.423 26C121.423 26 121.423 26 121.424 26C121.424 26 121.424 26 121.424 26C121.425 26 121.425 26 121.425 26C121.425 26 121.426 26 121.426 26C121.426 26 121.426 26 121.426 26C121.427 26 121.427 26 121.427 26C121.427 26 121.428 26 121.428 26C121.428 26 121.428 26 121.429 26C121.429 26 121.429 26 121.429 26C121.43 26 121.43 26 121.43 26C121.43 26 121.43 26 121.431 26C121.431 26 121.431 26 121.431 26C121.432 26 121.432 26 121.432 26C121.432 26 121.433 26 121.433 26C121.433 26 121.433 26 121.434 26C121.434 26 121.434 26 121.434 26C121.434 26 121.435 26 121.435 26C121.435 26 121.435 26 121.436 26C121.436 26 121.436 26 121.436 26C121.437 26 121.437 26 121.437 26C121.437 26 121.438 26 121.438 26C121.438 26 121.438 26 121.438 26C121.439 26 121.439 26 121.439 26C121.439 26 121.44 26 121.44 26C121.44 26 121.44 26 121.441 26C121.441 26 121.441 26 121.441 26C121.442 26 121.442 26 121.442 26C121.442 26 121.443 26 121.443 26C121.443 26 121.443 26 121.444 26C121.444 26 121.444 26 121.444 26C121.445 26 121.445 26 121.445 26C121.445 26 121.446 26 121.446 26C121.446 26 121.446 26 121.446 26C121.447 26 121.447 26 121.447 26C121.447 26 121.448 26 121.448 26C121.448 26 121.448 26 121.449 26C121.449 26 121.449 26 121.449 26C121.45 26 121.45 26 121.45 26C121.45 26 121.451 26 121.451 26C121.451 26 121.451 26 121.452 26C121.452 26 121.452 26 121.452 26C121.453 26 121.453 26 121.453 26C121.453 26 121.454 26 121.454 26C121.454 26 121.454 26 121.455 26C121.455 26 121.455 26 121.455 26C121.456 26 121.456 26 121.456 26C121.456 26 121.457 26 121.457 26C121.457 26 121.457 26 121.458 26C121.458 26 121.458 26 121.458 26C121.459 26 121.459 26 121.459 26C121.459 26 121.46 26 121.46 26C121.46 26 121.46 26 121.461 26C121.461 26 121.461 26 121.461 26C121.462 26 121.462 26 121.462 26C121.462 26 121.463 26 121.463 26C121.463 26 121.463 26 121.464 26C121.464 26 121.464 26 121.464 26C121.465 26 121.465 26 121.465 26C121.465 26 121.466 26 121.466 26C121.466 26 121.467 26 121.467 26C121.467 26 121.467 26 121.468 26C121.468 26 121.468 26 121.468 26C121.469 26 121.469 26 121.469 26C121.469 26 121.47 26 121.47 26C121.47 26 121.47 26 121.471 26C121.471 26 121.471 26 121.471 26C121.472 26 121.472 26 121.472 26C121.472 26 121.473 26 121.473 26C121.473 26 121.473 26 121.474 26C121.474 26 121.474 26 121.475 26C121.475 26 121.475 26 121.475 26C121.476 26 121.476 26 121.476 26C121.476 26 121.477 26 121.477 26C121.477 26 121.477 26 121.478 26C121.478 26 121.478 26 121.478 26C121.479 26 121.479 26 121.479 26C121.48 26 121.48 26 121.48 26C121.48 26 121.481 26 121.481 26C121.481 26 121.481 26 121.482 26C121.482 26 121.482 26 121.482 26C121.483 26 121.483 26 121.483 26C121.483 26 121.484 26 121.484 26C121.484 26 121.485 26 121.485 26C121.485 26 121.485 26 121.486 26C121.486 26 121.486 26 121.486 26C121.487 26 121.487 26 121.487 26C121.487 26 121.488 26 121.488 26C121.488 26 121.489 26 121.489 26C121.489 26 121.489 26 121.49 26C121.49 26 121.49 26 121.49 26C121.491 26 121.491 26 121.491 26C121.492 26 121.492 26 121.492 26C121.492 26 121.493 26 121.493 26C121.493 26 121.493 26 121.494 26C121.494 26 121.494 26 121.495 26C121.495 26 121.495 26 121.495 26C121.496 26 121.496 26 121.496 26C121.496 26 121.497 26 121.497 26C121.497 26 121.498 26 121.498 26C121.498 26 121.498 26 121.499 26C121.499 26 121.499 26 121.499 26C121.5 26 121.5 26 121.5 26C121.501 26 121.501 26 121.501 26C121.501 26 121.502 26 121.502 26C121.502 26 121.502 26 121.503 26C121.503 26 121.503 26 121.504 26C121.504 26 121.504 26 121.504 26C121.505 26 121.505 26 121.505 26C121.506 26 121.506 26 121.506 26C121.506 26 121.507 26 121.507 26C121.507 26 121.507 26 121.508 26C121.508 26 121.508 26 121.509 26C121.509 26 121.509 26 121.509 26C121.51 26 121.51 26 121.51 26C121.511 26 121.511 26 121.511 26C121.511 26 121.512 26 121.512 26C121.512 26 121.513 26 121.513 26C121.513 26 121.513 26 121.514 26C121.514 26 121.514 26 121.514 26C121.515 26 121.515 26 121.515 26C121.516 26 121.516 26 121.516 26C121.516 26 121.517 26 121.517 26C121.517 26 121.518 26 121.518 26C121.518 26 121.518 26 121.519 26C121.519 26 121.519 26 121.52 26C121.52 26 121.52 26 121.52 26C121.521 26 121.521 26 121.521 26C121.522 26 121.522 26 121.522 26C121.522 26 121.523 26 121.523 26C121.523 26 121.524 26 121.524 26C121.524 26 121.524 26 121.525 26C121.525 26 121.525 26 121.526 26C121.526 26 121.526 26 121.527 26C121.527 26 121.527 26 121.527 26C121.528 26 121.528 26 121.528 26C121.529 26 121.529 26 121.529 26C121.529 26 121.53 26 121.53 26C121.53 26 121.531 26 121.531 26C121.531 26 121.531 26 121.532 26C121.532 26 121.532 26 121.533 26C121.533 26 121.533 26 121.533 26C121.534 26 121.534 26 121.534 26C121.535 26 121.535 26 121.535 26C121.536 26 121.536 26 121.536 26C121.536 26 121.537 26 121.537 26C121.537 26 121.538 26 121.538 26C121.538 26 121.538 26 121.539 26C121.539 26 121.539 26 121.54 26C121.54 26 121.54 26 121.541 26C121.541 26 121.541 26 121.541 26C121.542 26 121.542 26 121.542 26C121.543 26 121.543 26 121.543 26C121.544 26 121.544 26 121.544 26C121.544 26 121.545 26 121.545 26C121.545 26 121.546 26 121.546 26C121.546 26 121.547 26 121.547 26C121.547 26 121.547 26 121.548 26C121.548 26 121.548 26 121.549 26C121.549 26 121.549 26 121.55 26C121.55 26 121.55 26 121.55 26C121.551 26 121.551 26 121.551 26C121.552 26 121.552 26 121.552 26C121.553 26 121.553 26 121.553 26C121.553 26 121.554 26 121.554 26C121.554 26 121.555 26 121.555 26C121.555 26 121.556 26 121.556 26C121.556 26 121.556 26 121.557 26C121.557 26 121.557 26 121.558 26C121.558 26 121.558 26 121.559 26C121.559 26 121.559 26 121.56 26C121.56 26 121.56 26 121.56 26C121.561 26 121.561 26 121.561 26C121.562 26 121.562 26 121.562 26C121.563 26 121.563 26 121.563 26C121.563 26 121.564 26 121.564 26C121.564 26 121.565 26 121.565 26C121.565 26 121.566 26 121.566 26C121.566 26 121.567 26 121.567 26C121.567 26 121.568 26 121.568 26C121.568 26 121.568 26 121.569 26C121.569 26 121.569 26 121.57 26C121.57 26 121.57 26 121.571 26C121.571 26 121.571 26 121.572 26C121.572 26 121.572 26 121.572 26C121.573 26 121.573 26 121.573 26C121.574 26 121.574 26 121.574 26C121.575 26 121.575 26 121.575 26C121.576 26 121.576 26 121.576 26C121.577 26 121.577 26 121.577 26C121.577 26 121.578 26 121.578 26C121.578 26 121.579 26 121.579 26C121.579 26 121.58 26 121.58 26C121.58 26 121.581 26 121.581 26C121.581 26 121.582 26 121.582 26C121.582 26 121.583 26 121.583 26C121.583 26 121.583 26 121.584 26C121.584 26 121.584 26 121.585 26C121.585 26 121.585 26 121.586 26C121.586 26 121.586 26 121.587 26C121.587 26 121.587 26 121.588 26C121.588 26 121.588 26 121.589 26C121.589 26 121.589 26 121.59 26C121.59 26 121.59 26 121.59 26C121.591 26 121.591 26 121.591 26C121.592 26 121.592 26 121.592 26C121.593 26 121.593 26 121.593 26C121.594 26 121.594 26 121.594 26C121.595 26 121.595 26 121.595 26C121.596 26 121.596 26 121.596 26C121.597 26 121.597 26 121.597 26C121.598 26 121.598 26 121.598 26C121.599 26 121.599 26 121.599 26C121.6 26 121.6 26 121.6 26C121.6 26 121.601 26 121.601 26C121.601 26 121.602 26 121.602 26C121.602 26 121.603 26 121.603 26C121.603 26 121.604 26 121.604 26C121.604 26 121.605 26 121.605 26C121.605 26 121.606 26 121.606 26C121.606 26 121.607 26 121.607 26C121.607 26 121.608 26 121.608 26C121.608 26 121.609 26 121.609 26C121.609 26 121.61 26 121.61 26C121.61 26 121.611 26 121.611 26C121.611 26 121.612 26 121.612 26C121.612 26 121.613 26 121.613 26C121.613 26 121.614 26 121.614 26C121.614 26 121.615 26 121.615 26C121.615 26 121.616 26 121.616 26C121.616 26 121.617 26 121.617 26C121.617 26 121.618 26 121.618 26C121.618 26 121.619 26 121.619 26C121.619 26 121.62 26 121.62 26C121.62 26 121.621 26 121.621 26C121.621 26 121.622 26 121.622 26C121.622 26 121.623 26 121.623 26C121.623 26 121.624 26 121.624 26C121.624 26 121.625 26 121.625 26C121.625 26 121.626 26 121.626 26C121.626 26 121.627 26 121.627 26C121.627 26 121.628 26 121.628 26C121.628 26 121.629 26 121.629 26C121.629 26 121.63 26 121.63 26C121.63 26 121.631 26 121.631 26C121.631 26 121.632 26 121.632 26C121.632 26 121.633 26 121.633 26C121.633 26 121.634 26 121.634 26C121.634 26 121.635 26 121.635 26C121.635 26 121.636 26 121.636 26C121.636 26 121.637 26 121.637 26C121.637 26 121.638 26 121.638 26C121.639 26 121.639 26 121.639 26C121.64 26 121.64 26 121.64 26C121.641 26 121.641 26 121.641 26C121.642 26 121.642 26 121.642 26C121.643 26 121.643 26 121.643 26C121.644 26 121.644 26 121.644 26C121.645 26 121.645 26 121.645 26C121.646 26 121.646 26 121.646 26C121.647 26 121.647 26 121.647 26C121.648 26 121.648 26 121.648 26C121.649 26 121.649 26 121.65 26C121.65 26 121.65 26 121.651 26C121.651 26 121.651 26 121.652 26C121.652 26 121.652 26 121.653 26C121.653 26 121.653 26 121.654 26C121.654 26 121.654 26 121.655 26C121.655 26 121.655 26 121.656 26C121.656 26 121.657 26 121.657 26C121.657 26 121.658 26 121.658 26C121.658 26 121.659 26 121.659 26C121.659 26 121.66 26 121.66 26C121.66 26 121.661 26 121.661 26C121.661 26 121.662 26 121.662 26C121.662 26 121.663 26 121.663 26C121.664 26 121.664 26 121.664 26C121.665 26 121.665 26 121.665 26C121.666 26 121.666 26 121.666 26C121.667 26 121.667 26 121.667 26C121.668 26 121.668 26 121.668 26C121.669 26 121.669 26 121.67 26C121.67 26 121.67 26 121.671 26C121.671 26 121.671 26 121.672 26C121.672 26 121.672 26 121.673 26C121.673 26 121.673 26 121.674 26C121.674 26 121.675 26 121.675 26C121.675 26 121.676 26 121.676 26C121.676 26 121.677 26 121.677 26C121.677 26 121.678 26 121.678 26C121.678 26 121.679 26 121.679 26C121.68 26 121.68 26 121.68 26C121.681 26 121.681 26 121.681 26C121.682 26 121.682 26 121.682 26C121.683 26 121.683 26 121.684 26C121.684 26 121.684 26 121.685 26C121.685 26 121.685 26 121.686 26C121.686 26 121.686 26 121.687 26C121.687 26 121.687 26 121.688 26C121.688 26 121.689 26 121.689 26C121.689 26 121.69 26 121.69 26C121.69 26 121.691 26 121.691 26C121.691 26 121.692 26 121.692 26C121.693 26 121.693 26 121.693 26C121.694 26 121.694 26 121.694 26C121.695 26 121.695 26 121.696 26C121.696 26 121.696 26 121.697 26C121.697 26 121.697 26 121.698 26C121.698 26 121.698 26 121.699 26C121.699 26 121.7 26 121.7 26C121.7 26 121.701 26 121.701 26C121.701 26 121.702 26 121.702 26C121.702 26 121.703 26 121.703 26C121.704 26 121.704 26 121.704 26C121.705 26 121.705 26 121.705 26C121.706 26 121.706 26 121.707 26C121.707 26 121.707 26 121.708 26C121.708 26 121.708 26 121.709 26C121.709 26 121.71 26 121.71 26C121.71 26 121.711 26 121.711 26C121.711 26 121.712 26 121.712 26C121.713 26 121.713 26 121.713 26C121.714 26 121.714 26 121.714 26C121.715 26 121.715 26 121.715 26C121.716 26 121.716 26 121.717 26C121.717 26 121.717 26 121.718 26C121.718 26 121.718 26 121.719 26C121.719 26 121.72 26 121.72 26C121.72 26 121.721 26 121.721 26C121.721 26 121.722 26 121.722 26C121.723 26 121.723 26 121.723 26C121.724 26 121.724 26 121.725 26C121.725 26 121.725 26 121.726 26C121.726 26 121.726 26 121.727 26C121.727 26 121.728 26 121.728 26C121.728 26 121.729 26 121.729 26C121.729 26 121.73 26 121.73 26C121.731 26 121.731 26 121.731 26C121.732 26 121.732 26 121.732 26C121.733 26 121.733 26 121.734 26C121.734 26 121.734 26 121.735 26C121.735 26 121.736 26 121.736 26C121.736 26 121.737 26 121.737 26C121.737 26 121.738 26 121.738 26C121.739 26 121.739 26 121.739 26C121.74 26 121.74 26 121.74 26C121.741 26 121.741 26 121.742 26C121.742 26 121.742 26 121.743 26C121.743 26 121.744 26 121.744 26C121.744 26 121.745 26 121.745 26C121.745 26 121.746 26 121.746 26C121.747 26 121.747 26 121.747 26C121.748 26 121.748 26 121.749 26C121.749 26 121.749 26 121.75 26C121.75 26 121.751 26 121.751 26C121.751 26 121.752 26 121.752 26C121.752 26 121.753 26 121.753 26C121.754 26 121.754 26 121.754 26C121.755 26 121.755 26 121.756 26C121.756 26 121.756 26 121.757 26C121.757 26 121.758 26 121.758 26C121.758 26 121.759 26 121.759 26C121.759 26 121.76 26 121.76 26C121.761 26 121.761 26 121.761 26C121.762 26 121.762 26 121.763 26C121.763 26 121.763 26 121.764 26C121.764 26 121.765 26 121.765 26C121.765 26 121.766 26 121.766 26C121.767 26 121.767 26 121.767 26C121.768 26 121.768 26 121.769 26C121.769 26 121.769 26 121.77 26C121.77 26 121.77 26 121.771 26C121.771 26 121.772 26 121.772 26C121.772 26 121.773 26 121.773 26C121.774 26 121.774 26 121.774 26C121.775 26 121.775 26 121.776 26C121.776 26 121.776 26 121.777 26C121.777 26 121.778 26 121.778 26C121.778 26 121.779 26 121.779 26C121.78 26 121.78 26 121.78 26C121.781 26 121.781 26 121.782 26C121.782 26 121.782 26 121.783 26C121.783 26 121.784 26 121.784 26C121.784 26 121.785 26 121.785 26C121.786 26 121.786 26 121.786 26C121.787 26 121.787 26 121.788 26C121.788 26 121.788 26 121.789 26C121.789 26 121.79 26 121.79 26C121.79 26 121.791 26 121.791 26C121.792 26 121.792 26 121.792 26C121.793 26 121.793 26 121.794 26C121.794 26 121.794 26 121.795 26C121.795 26 121.796 26 121.796 26C121.797 26 121.797 26 121.797 26C121.798 26 121.798 26 121.799 26C121.799 26 121.799 26 121.8 26C121.8 26 121.801 26 121.801 26C121.801 26 121.802 26 121.802 26C121.803 26 121.803 26 121.803 26C121.804 26 121.804 26 121.805 26C121.805 26 121.805 26 121.806 26C121.806 26 121.807 26 121.807 26C121.807 26 121.808 26 121.808 26C121.809 26 121.809 26 121.81 26C121.81 26 121.81 26 121.811 26C121.811 26 121.812 26 121.812 26C121.812 26 121.813 26 121.813 26C121.814 26 121.814 26 121.814 26C121.815 26 121.815 26 121.816 26C121.816 26 121.817 26 121.817 26C121.817 26 121.818 26 121.818 26C121.819 26 121.819 26 121.819 26C121.82 26 121.82 26 121.821 26C121.821 26 121.821 26 121.822 26C121.822 26 121.823 26 121.823 26C121.824 26 121.824 26 121.824 26C121.825 26 121.825 26 121.826 26C121.826 26 121.826 26 121.827 26C121.827 26 121.828 26 121.828 26C121.829 26 121.829 26 121.829 26C121.83 26 121.83 26 121.831 26C121.831 26 121.831 26 121.832 26C121.832 26 121.833 26 121.833 26C121.834 26 121.834 26 121.834 26C121.835 26 121.835 26 121.836 26C121.836 26 121.836 26 121.837 26V24ZM121.368 24H115.04V26H121.368V24ZM116.04 25V24.9414H114.04V25H116.04ZM116.002 25.2161C116.075 24.9607 116.136 24.6653 116.188 24.3389L114.214 24.0205C114.169 24.2995 114.123 24.512 114.079 24.6667L116.002 25.2161ZM116.183 24.3697C116.25 24.0211 116.303 23.608 116.344 23.1384L114.351 22.9651C114.314 23.3939 114.269 23.7328 114.219 23.9897L116.183 24.3697ZM116.344 23.1384C116.385 22.6657 116.415 22.1143 116.435 21.4868L114.436 21.4233C114.417 22.0264 114.388 22.5394 114.351 22.9651L116.344 23.1384ZM116.435 21.4863C116.455 20.8482 116.465 20.1098 116.465 19.2725H114.465C114.465 20.0953 114.455 20.812 114.436 21.4238L116.435 21.4863ZM116.465 19.2725V9.73633H114.465V19.2725H116.465ZM116.465 9.73633C116.465 8.89904 116.455 8.16534 116.435 7.53663L114.436 7.60009C114.455 8.20184 114.465 8.91346 114.465 9.73633H116.465ZM116.435 7.53712C116.415 6.90012 116.385 6.34354 116.344 5.8704L114.351 6.04366C114.388 6.46896 114.417 6.9866 114.436 7.59959L116.435 7.53712ZM116.344 5.87223C116.303 5.39334 116.251 4.9744 116.183 4.62443L114.219 5.00448C114.269 5.25998 114.314 5.60275 114.351 6.04183L116.344 5.87223ZM116.188 4.65522C116.136 4.32881 116.075 4.03349 116.002 3.77801L114.079 4.32746C114.123 4.48214 114.169 4.69463 114.214 4.97369L116.188 4.65522ZM116.04 4.05273V3.99414H114.04V4.05273H116.04Z" fill="#01F6FC"/>
</svg>
