<svg width="56" height="60" viewBox="0 0 56 60" fill="none" xmlns="http://www.w3.org/2000/svg">
<path d="M27.4376 0.234305C27.0743 0.574149 27.0391 0.949149 27.086 3.79681L27.1211 6.35149L27.4493 6.63274C27.8477 6.97259 28.1055 6.98431 28.5157 6.6679L28.8204 6.43352V3.45696C28.8204 0.538993 28.8204 0.46868 28.5626 0.234305C28.2344 -0.0703821 27.7657 -0.0703821 27.4376 0.234305Z" fill="#01F6FC"/>
<path d="M18.9766 5.03916C18.8477 5.16807 18.7422 5.42588 18.7422 5.6251C18.7422 6.11729 19.5391 8.0626 19.7969 8.20322C20.4062 8.53135 21.1328 8.15635 21.1211 7.52354C21.1211 7.08994 20.4062 5.29697 20.1367 5.02744C19.8438 4.73447 19.2695 4.74619 18.9766 5.03916Z" fill="#01F6FC"/>
<path d="M35.875 5.00397C35.5469 5.29694 34.7734 7.336 34.8672 7.6524C35.043 8.25006 35.6406 8.49615 36.2031 8.20319C36.4609 8.06256 37.2578 6.11725 37.2578 5.62506C37.2578 4.92194 36.4024 4.54694 35.875 5.00397Z" fill="#01F6FC"/>
<path d="M8.78125 7.96876C8.64062 8.10938 8.54688 8.35548 8.54688 8.57813C8.54688 8.90626 8.79297 9.19923 10.5156 10.9336C11.5938 12.0234 12.6016 12.9609 12.7539 13.0195C13.3047 13.2305 13.9375 12.7383 13.9375 12.1055C13.9375 12 13 10.9688 11.8633 9.82032C10.0117 7.95704 9.74219 7.73438 9.40234 7.73438C9.16797 7.73438 8.92188 7.82813 8.78125 7.96876Z" fill="#01F6FC"/>
<path d="M44.1367 9.82036C43 10.9688 42.0625 12 42.0625 12.0938C42.0625 12.7618 42.6836 13.2422 43.2461 13.0196C43.3984 12.961 44.4062 12.0235 45.4961 10.9336C47.207 9.19926 47.4531 8.9063 47.4531 8.57817C47.4531 8.08598 47.0898 7.73442 46.5977 7.73442C46.2578 7.73442 45.9883 7.95708 44.1367 9.82036Z" fill="#01F6FC"/>
<path d="M26.3008 9.10551C25.3516 9.18754 23.2773 9.63285 22.2226 9.96098C20.9687 10.3711 18.2148 11.6954 17.7695 12.1172C17.2305 12.6094 17.4297 13.4766 18.1094 13.6407C18.3555 13.711 18.6367 13.5938 19.4336 13.1368C21.1914 12.1289 22.9726 11.461 25.0117 11.0625C26.4531 10.7813 29.5234 10.7696 30.9883 11.0508C37.375 12.293 42.4258 16.7461 44.2773 22.793C45.25 25.9571 45.2734 29.4375 44.3476 32.6016C43.3516 36.0586 41.1601 39.2227 38.2305 41.461C36.5078 42.7618 35.6055 44.0039 35.2422 45.5625L35.0898 46.1719H33.4726H31.8437L31.4922 46.5235C31.2109 46.8164 31.1523 46.9454 31.2109 47.2032C31.3633 47.8477 31.6094 47.9297 33.4141 47.9297H35.043L35.0078 50.543L34.9726 53.168L34.6328 53.6016C33.9531 54.4922 34 54.4922 28 54.4922C23.0664 54.4922 22.6328 54.4688 22.1992 54.2696C21.6601 54.0235 21.2734 53.6368 21.0976 53.168C21.0156 52.9688 20.9687 51.8321 20.9687 50.3789V47.9297H24.9531C28.7852 47.9297 28.9492 47.918 29.1719 47.6954C29.5234 47.3438 29.4883 46.7227 29.1016 46.418C28.7969 46.1836 28.6562 46.1719 24.8476 46.1719H20.9101L20.7578 45.5508C20.3945 43.9688 19.4687 42.7266 17.6289 41.3438C13.9023 38.543 11.3711 33.8789 11.0195 29.168C10.668 24.3633 12.25 19.8164 15.4844 16.3477C16.1875 15.586 16.3984 15.2696 16.3984 15.0118C16.3984 14.5196 16.0469 14.1446 15.5781 14.1446C15.2383 14.1446 15.0508 14.2735 14.1836 15.1875C12.1094 17.3555 10.5273 20.25 9.78905 23.2032C9.41405 24.7032 9.35546 25.043 9.24999 26.543C8.82812 32.8946 11.6641 39.0821 16.75 42.8907C17.957 43.793 18.4726 44.4024 18.918 45.4688C19.1172 45.9375 19.1523 46.418 19.2109 49.6875C19.2695 53.25 19.2812 53.4024 19.5508 54C19.9023 54.7735 20.8984 55.6993 21.6719 55.9805C22.082 56.1211 22.2812 56.2735 22.4101 56.543C23.0312 57.8321 24.3906 59.0391 25.8555 59.6133C26.5586 59.8946 26.8164 59.9297 28 59.918C29.0898 59.918 29.4883 59.8711 30.0508 59.6602C31.4336 59.1563 32.6523 58.1368 33.4023 56.8477C33.7422 56.2618 33.8828 56.1329 34.3516 55.9688C35.1016 55.6993 36.1094 54.7618 36.4492 54C36.7187 53.4024 36.7305 53.25 36.7891 49.6875C36.8476 46.4297 36.8828 45.9375 37.082 45.4688C37.5273 44.3907 38.0781 43.7579 39.4844 42.7149C40.6094 41.8711 42.3555 40.043 43.2578 38.7774C45.8242 35.168 47.0195 30.9727 46.7383 26.5313C46.5742 23.8946 45.9531 21.6797 44.6875 19.2188C41.7695 13.5586 36.2734 9.82035 29.8516 9.14066C28.8086 9.03519 27.2969 9.01176 26.3008 9.10551ZM31.6328 56.3555C31.6328 56.5782 30.4141 57.5743 29.7812 57.8672C29.207 58.1368 28.9609 58.1836 28 58.1836C27.0391 58.1836 26.793 58.1368 26.2187 57.8672C25.5859 57.5743 24.3672 56.5782 24.3672 56.3555C24.3672 56.2969 26.0078 56.25 28 56.25C30.0039 56.25 31.6328 56.2969 31.6328 56.3555Z" fill="white"/>
<path d="M25.6094 16.5585C25.3985 16.7695 25.3165 17.0507 25.1993 17.9296C25 19.4179 25 19.4179 24.5079 19.582C24.2735 19.6523 23.8868 19.8164 23.6641 19.9218L23.254 20.1328L22.1524 19.3242C21.4727 18.8203 20.9454 18.5156 20.7579 18.5156C20.5352 18.5156 20.1016 18.8671 18.9649 19.9921C18.1446 20.8125 17.4415 21.5976 17.4063 21.75C17.3125 22.1015 17.4297 22.3242 18.2852 23.4492L18.9649 24.3515L18.6016 25.207C18.4024 25.6875 18.2383 26.0859 18.2266 26.0976C18.2149 26.121 17.629 26.2148 16.9141 26.3085C15.0743 26.5781 15.1094 26.5195 15.1094 29.121C15.1094 31.7343 15.0743 31.6757 16.9258 31.9453C17.6407 32.0507 18.2266 32.1445 18.2266 32.1445C18.2383 32.1562 18.4024 32.5546 18.6016 33.0351L18.9649 33.9023L18.1446 35.0156C17.4766 35.9296 17.336 36.1874 17.3946 36.4335C17.4766 36.7617 20.1954 39.5742 20.5352 39.6796C20.9102 39.7968 21.2618 39.6328 22.2579 38.871L23.2305 38.121L24.0625 38.4843C24.5196 38.6835 24.9297 38.8945 24.9649 38.9414C25 38.9999 25.1055 39.5742 25.1875 40.2187C25.4102 41.9882 25.3516 41.9531 28 41.9531C30.6485 41.9531 30.5899 41.9882 30.8125 40.2187C30.8946 39.5742 31 38.9999 31.0352 38.9414C31.0704 38.8945 31.4805 38.6835 31.9258 38.4843L32.7579 38.1328L33.7422 38.871C34.75 39.6328 35.0899 39.7968 35.4649 39.6796C35.5821 39.6445 36.3321 38.9531 37.129 38.1562C38.9102 36.3632 38.8985 36.4218 37.8086 34.957L37.0352 33.9023L37.3868 33.0351C37.586 32.5546 37.7618 32.1562 37.7735 32.1445C37.7735 32.1445 38.3711 32.0507 39.0743 31.9453C40.9258 31.6757 40.8907 31.7343 40.8907 29.1328C40.8907 26.5078 40.9375 26.5898 39.0977 26.3085L37.7618 26.1093L37.3868 25.2187L37.0235 24.3398L37.7032 23.4492C38.5704 22.3359 38.6875 22.1015 38.5938 21.75C38.5586 21.5976 37.8555 20.8125 37.0352 19.9921C35.8985 18.8671 35.4649 18.5156 35.2422 18.5156C35.0547 18.5156 34.5274 18.8203 33.8477 19.3242L32.7579 20.121L32.1719 19.8632C31.8438 19.7226 31.4454 19.5468 31.2813 19.4882C31 19.371 30.9649 19.2773 30.8243 18.1054C30.5899 16.2421 30.6719 16.289 28 16.289C25.9493 16.289 25.8672 16.3007 25.6094 16.5585ZM29.1602 19.0664C29.3594 20.5898 29.4883 20.8007 30.3086 21.0351C30.6836 21.1406 31.3516 21.4101 31.7852 21.6328C32.2188 21.8554 32.711 22.0312 32.8633 22.0312C33.0157 22.0312 33.5547 21.7148 34.0821 21.3281C34.6094 20.9414 35.0782 20.625 35.125 20.625C35.1719 20.625 35.5235 20.9414 35.9102 21.3281L36.5899 22.0195L35.9454 22.875C34.9258 24.2226 34.9493 24.1054 35.4766 25.289C35.7344 25.8515 36.0274 26.5898 36.1446 26.9296C36.25 27.2695 36.4258 27.5859 36.543 27.6445C36.6485 27.7031 37.1875 27.8203 37.7266 27.8906C39.2618 28.0898 39.1446 27.9843 39.1094 29.1562L39.0743 30.1757L37.879 30.3515C36.5313 30.5507 36.3086 30.6914 36.0977 31.4414C36.0157 31.7109 35.7461 32.3906 35.4883 32.9531C34.9493 34.1249 34.9258 34.0195 35.9336 35.3789L36.5782 36.2343L35.8985 36.9257C35.5235 37.3124 35.1602 37.6171 35.0899 37.6171C35.0313 37.6171 34.5508 37.3007 34.0469 36.914C33.004 36.1289 32.7696 36.082 32.0547 36.4921C31.7852 36.6445 31.2344 36.8906 30.8125 37.0312C29.6758 37.4179 29.5352 37.4999 29.418 37.8984C29.3243 38.1796 29.0547 39.8789 29.0547 40.1484C29.0547 40.2304 26.9454 40.1953 26.9454 40.1015C26.9336 39.8437 26.6055 37.8749 26.5352 37.7109C26.4883 37.6054 26.2071 37.4179 25.9141 37.3124C24.8946 36.9374 23.9571 36.539 23.7227 36.3749C23.2891 36.0703 22.9141 36.1874 21.9532 36.914C21.4493 37.3007 20.9688 37.6171 20.9102 37.6171C20.8399 37.6171 20.4766 37.3124 20.1016 36.9257L19.4219 36.2343L20.0665 35.3789C21.0157 34.1132 21.0274 34.0429 20.5586 33.0703C20.3477 32.6132 20.0782 31.9453 19.961 31.5937C19.6563 30.6328 19.4688 30.5156 18.0977 30.3281L16.9258 30.1757L16.8907 29.1562C16.8555 27.9843 16.7032 28.1132 18.3204 27.8789C18.836 27.8085 19.3516 27.6914 19.4688 27.621C19.586 27.539 19.7969 27.1406 19.9375 26.7187C20.0782 26.2968 20.3594 25.5937 20.5704 25.1601C21.0274 24.1992 21.0157 24.164 20.0782 22.8984L19.4102 22.0195L20.1016 21.3164C20.4766 20.9414 20.8282 20.625 20.875 20.625C20.9219 20.625 21.3907 20.9414 21.918 21.3281C22.4454 21.7148 22.9844 22.0312 23.1368 22.0312C23.2891 22.0312 23.7813 21.8554 24.2149 21.6328C24.6485 21.4218 25.2227 21.1757 25.4805 21.1054C26.1602 20.8945 26.4532 20.7304 26.5352 20.5195C26.6055 20.3554 26.9336 18.3867 26.9454 18.1289C26.9454 18.082 27.4141 18.0468 27.9883 18.0468H29.0313L29.1602 19.0664Z" fill="#01F6FC"/>
<path d="M26.6056 23.625C22.3399 24.7734 20.8985 30.0234 23.9923 33.1289C26.2188 35.3555 29.7813 35.3555 32.0079 33.1289C33.7071 31.418 34.1524 28.8398 33.0977 26.6602C31.9493 24.2695 29.1251 22.9453 26.6056 23.625ZM29.547 25.5234C30.9298 26.1328 31.8907 27.5742 31.8907 29.0508C31.9024 30.1875 31.6212 30.9258 30.8595 31.7461C29.9923 32.6836 29.3126 32.9883 28.0001 32.9883C26.6876 32.9883 26.0079 32.6836 25.1407 31.7461C24.4024 30.9492 24.086 30.1758 24.086 29.1211C24.086 27.4219 25.211 25.8984 26.8634 25.3594C27.5431 25.1367 28.8556 25.2187 29.547 25.5234Z" fill="white"/>
<path d="M5.86337 18.2343C5.34775 18.8906 5.71103 19.3945 7.08212 19.9101C8.18368 20.332 8.58212 20.3554 8.89853 20.039C9.1915 19.7461 9.21493 19.0898 8.93368 18.8437C8.60556 18.5742 6.8829 17.9297 6.47275 17.9297C6.21493 17.9297 6.02743 18.0234 5.86337 18.2343Z" fill="#01F6FC"/>
<path d="M48.1445 18.3164C46.9961 18.7969 46.8672 18.9141 46.8672 19.4648C46.8672 19.9688 47.1719 20.2734 47.6875 20.2734C48.1797 20.2734 49.832 19.582 50.125 19.2656C50.4414 18.9023 50.4531 18.6328 50.1367 18.2344C49.8086 17.8242 49.293 17.8477 48.1445 18.3164Z" fill="#01F6FC"/>
<path d="M1.31645 26.3672C0.789104 26.5781 0.671916 27.2109 1.05864 27.7031L1.29301 28.0078H4.26957H7.24614L7.48051 27.7031C7.7852 27.3164 7.79692 26.9414 7.50395 26.5898C7.28129 26.3086 7.26957 26.3086 4.42192 26.2852C2.86332 26.2734 1.45707 26.3086 1.31645 26.3672Z" fill="#01F6FC"/>
<path d="M48.7774 26.3672C48.25 26.5781 48.1329 27.2109 48.5196 27.7031L48.7539 28.0078H51.7305H54.7071L54.9414 27.7031C55.2461 27.3164 55.2579 26.9414 54.9649 26.5898C54.7422 26.3086 54.7305 26.3086 51.8829 26.2852C50.3243 26.2734 48.918 26.3086 48.7774 26.3672Z" fill="#01F6FC"/>
</svg>
