<svg width="60" height="60" viewBox="0 0 60 60" fill="none" xmlns="http://www.w3.org/2000/svg">
<path d="M26.8751 56.2501H33.1751C35.5751 56.2501 37.1251 54.55 36.6751 52.475L35.6501 47.9502H24.4001L23.3751 52.475C22.9251 54.425 24.6251 56.2501 26.8751 56.2501Z" stroke="white" stroke-width="2.5" stroke-linecap="round" stroke-linejoin="round"/>
<path d="M35.65 47.9252L39.975 44.0751C42.4 41.9251 42.5 40.425 40.575 38L32.95 28.3251C31.35 26.3001 28.725 26.3001 27.125 28.3251L19.5 38C17.575 40.425 17.575 42.0001 20.1 44.0751L24.425 47.9252" stroke="white" stroke-width="2.5" stroke-linecap="round" stroke-linejoin="round"/>
<path d="M30.025 27.8V34.1251" stroke="white" stroke-width="2.5" stroke-linecap="round" stroke-linejoin="round"/>
<path d="M31.3 12.5H28.8C27.425 12.5 26.3 11.375 26.3 10V7.5C26.3 6.125 27.425 5 28.8 5H31.3C32.675 5 33.8 6.125 33.8 7.5V10C33.8 11.375 32.675 12.5 31.3 12.5Z" stroke="#01F6FC" stroke-width="2.5" stroke-linecap="round" stroke-linejoin="round"/>
<path d="M8.17505 35.4252H10.675C12.05 35.4252 13.175 34.3002 13.175 32.9252V30.4252C13.175 29.0502 12.05 27.925 10.675 27.925H8.17505C6.80005 27.925 5.67505 29.0502 5.67505 30.4252V32.9252C5.67505 34.3002 6.80005 35.4252 8.17505 35.4252Z" stroke="#01F6FC" stroke-width="2.5" stroke-linecap="round" stroke-linejoin="round"/>
<path d="M51.8251 35.4252H49.3251C47.9501 35.4252 46.8251 34.3002 46.8251 32.9252V30.4252C46.8251 29.0502 47.9501 27.925 49.3251 27.925H51.8251C53.2001 27.925 54.3251 29.0502 54.3251 30.4252V32.9252C54.3251 34.3002 53.2001 35.4252 51.8251 35.4252Z" stroke="#01F6FC" stroke-width="2.5" stroke-linecap="round" stroke-linejoin="round"/>
<path d="M26.3 8.8999C16.775 10.0249 9.375 18.0999 9.375 27.9249" stroke="#01F6FC" stroke-width="2.5" stroke-linecap="round" stroke-linejoin="round"/>
<path d="M50.625 27.9249C50.625 18.1249 43.275 10.0749 33.8 8.8999" stroke="#01F6FC" stroke-width="2.5" stroke-linecap="round" stroke-linejoin="round"/>
</svg>
