<svg width="60" height="60" viewBox="0 0 60 60" fill="none" xmlns="http://www.w3.org/2000/svg">
<path d="M30 19.7251L27.325 24.3751C26.725 25.4001 27.225 26.2501 28.4 26.2501H31.575C32.775 26.2501 33.25 27.1001 32.65 28.1251L30 32.7751" stroke="#01F6FC" stroke-width="2.5" stroke-linecap="round" stroke-linejoin="round"/>
<path d="M20.75 45.1V42.1999C15 38.7249 10.275 31.9499 10.275 24.7499C10.275 12.3749 21.65 2.67495 34.5 5.47495C40.15 6.72495 45.1 10.475 47.675 15.65C52.9 26.15 47.4 37.3 39.325 42.175V45.075C39.325 45.8 39.6 47.4749 36.925 47.4749H23.15C20.4 47.4999 20.75 46.425 20.75 45.1Z" stroke="white" stroke-width="2.5" stroke-linecap="round" stroke-linejoin="round"/>
<path d="M21.25 55C26.975 53.375 33.025 53.375 38.75 55" stroke="#01F6FC" stroke-width="2.5" stroke-linecap="round" stroke-linejoin="round"/>
</svg>
